$MeshFormat
2.2 0 8
$EndMeshFormat
$Nodes
157
1 -4 0 0
2 -3 0 0
3 -3 1 0
4 -4 1 0
5 -3.8 0 0
6 -3.600000000000001 0 0
7 -3.4 0 0
8 -3.2 0 0
9 -3.899999999999781 0 0
10 -3.70000000000021 0 0
11 -3.500000000000627 0 0
12 -3.300000000000225 0 0
13 -3.099999999999874 0 0
14 -3 0.2000000000008322 0
15 -3 0.4000000000016644 0
16 -3 0.6000000000013869 0
17 -3 0.7999999999999998 0
18 -3 0.1000000000004539 0
19 -3 0.3000000000012483 0
20 -3 0.5000000000012481 0
21 -3 0.7000000000006933 0
22 -3 0.8999999999999999 0
23 -3.2 1 0
24 -3.399999999999999 1 0
25 -3.6 1 0
26 -3.8 1 0
27 -3.100000000000219 1 0
28 -3.29999999999979 1 0
29 -3.499999999999373 1 0
30 -3.699999999999775 1 0
31 -3.900000000000126 1 0
32 -4 0.7999999999999998 0
33 -4 0.6000000000013869 0
34 -4 0.4000000000016644 0
35 -4 0.2000000000008322 0
36 -4 0.8999999999999206 0
37 -4 0.7000000000005973 0
38 -4 0.5000000000017788 0
39 -4 0.3000000000012483 0
40 -4 0.1000000000004161 0
41 -3.49033209450519 0.8372448438201957 0
42 -3.491966698027744 0.1636988949640354 0
43 -3.82773865802737 0.5016346035238837 0
44 -3.158080810622637 0.5118616330509562 0
45 -3.830702912344436 0.6992518096432447 0
46 -3.670747552638717 0.6038489982218588 0
47 -3.675534181786797 0.3997910132377856 0
48 -3.480384757730433 0.5000000000018815 0
49 -3.148263062708422 0.6999218203954944 0
50 -3.191601329881126 0.3180797153174069 0
51 -3.689329065369915 0.1851971115058325 0
52 -3.841031957278407 0.305505481630643 0
53 -3.306384794857108 0.1620817847992436 0
54 -3.683892738336175 0.8119551020552623 0
55 -3.294342985479846 0.8087403909150901 0
56 -3.389834878353089 0.3206096450468334 0
57 -3.400476606836012 0.6642088467563557 0
58 -3.326794919243335 0.4695476994125178 0
59 -3.146410161514241 0.1464101615144625 0
60 -3.146410161513332 0.8535898384866685 0
61 -3.853589838486732 0.8535898384867338 0
62 -3.853589838486364 0.1464101615138601 0
63 -3.541876770378792 0.3102497757859153 0
64 -3.541876770378148 0.689750224214803 0
65 -3.272757889497016 0.6092319435409386 0
66 -3.750725232491577 0.6515504039325517 0
67 -3.677320145487446 0.7079020501385606 0
68 -3.757297825340306 0.7556034558492535 0
69 -3.290718104117108 0.3193446801821201 0
70 -3.259198124562231 0.3938137073649624 0
71 -3.358314898798212 0.3950786722296756 0
72 -3.682431623578356 0.292494062371809 0
73 -3.758283069532602 0.3526482474342143 0
74 -3.765180511324161 0.2453512965682377 0
75 -3.248993062369117 0.2400807500583252 0
76 -3.348109836605099 0.2413457149230385 0
77 -3.606312161508432 0.646799611218331 0
78 -3.612884754357161 0.7508526631350327 0
79 -3.615602917874353 0.2477234436458739 0
80 -3.608705476082794 0.3550203945118504 0
81 -3.221303024094134 0.7543311056552923 0
82 -3.28355043748843 0.7089861672280143 0
83 -3.210510476102719 0.6545768819682165 0
84 -3.347409796157929 0.736474618835723 0
85 -3.336617248166514 0.6367203951486471 0
86 -3.174841070251882 0.4149706741841815 0
87 -3.242437864932986 0.490704666231737 0
88 -3.095800664940563 0.3590398576595356 0
89 -3.095800664940563 0.2590398576591195 0
90 -3.913869329013685 0.450817301762774 0
91 -3.913869329013685 0.5508173017626352 0
92 -3.079040405311319 0.5559308165261716 0
93 -3.079040405311319 0.4559308165263103 0
94 -3.545166047252595 0.9186224219100978 0
95 -3.445166047252595 0.9186224219100978 0
96 -3.545983349013872 0.0818494474820177 0
97 -3.590647881698829 0.1744480032349339 0
98 -3.644664532684958 0.09259855575291623 0
99 -3.744664532684958 0.09259855575291623 0
100 -3.445983349013872 0.0818494474820177 0
101 -3.074131531354211 0.7499609101977471 0
102 -3.074131531354211 0.6499609101984407 0
103 -3.673140867212757 0.5018200057298222 0
104 -3.577959469758615 0.4498955066198336 0
105 -3.575566155184575 0.5519244991118701 0
106 -3.749243105333044 0.5527418008728713 0
107 -3.751636419907083 0.4507128083808346 0
108 -3.15317193666553 0.6058917267232253 0
109 -3.829220785185903 0.6004432065835642 0
110 -3.915351456172218 0.6496259048223159 0
111 -3.915351456172218 0.7496259048216223 0
112 -3.920515978639203 0.2527527408157376 0
113 -3.920515978639203 0.3527527408161537 0
114 -3.741946369168087 0.9059775510276311 0
115 -3.641946369168087 0.9059775510276311 0
116 -3.253192397428554 0.08104089239962178 0
117 -3.353192397428554 0.08104089239962178 0
118 -3.834385307652888 0.4035700425772634 0
119 -3.347171492739923 0.904370195457545 0
120 -3.247171492739922 0.904370195457545 0
121 -3.399175746442426 0.1628903398816395 0
122 -3.587112416420682 0.824599972937729 0
123 -3.392337539992518 0.822992617367643 0
124 -3.073205080757121 0.1732050807576473 0
125 -3.073205080757121 0.07320508075723124 0
126 -3.173205080757121 0.07320508075723124 0
127 -3.073205080756666 0.9267949192433342 0
128 -3.073205080756666 0.8267949192433341 0
129 -3.926794919243366 0.8267949192433668 0
130 -3.926794919243366 0.9267949192433669 0
131 -3.926794919243182 0.07320508075693005 0
132 -3.926794919243182 0.1732050807573461 0
133 -3.826794919243182 0.07320508075693005 0
134 -3.173205080756666 0.9267949192433342 0
135 -3.826794919243366 0.9267949192433669 0
136 -3.440430682283222 0.5821044233791186 0
137 -3.403589838486884 0.4847738497071997 0
138 -3.363635763039674 0.5668782730844368 0
139 -3.516921734203268 0.2369743353749753 0
140 -3.440900788190417 0.2421542700054344 0
141 -3.445404350670601 0.7507268452882757 0
142 -3.511130764054612 0.4051248878938984 0
143 -3.51113076405429 0.5948751121083422 0
144 -3.299776404370175 0.5393898214767282 0
145 -3.516104432441669 0.7634975340174994 0
146 -3.435109818041761 0.4103048225243574 0
147 -3.46585582436594 0.3154297104163744 0
148 -3.47117668860708 0.6769795354855794 0
149 -3.220376573496589 0.8311651147008793 0
150 -3.768741288411453 0.832772470270998 0
151 -3.847310897882386 0.2259578215722516 0
152 -3.226397478185675 0.154245973156853 0
153 -3.147336612110877 0.7767558294410815 0
154 -3.771459451928139 0.1658036365098463 0
155 -3.169005745697684 0.2322449384159347 0
156 -3.842146375415584 0.7764208240649892 0
157 -3.215419350059826 0.5605467882959474 0
$EndNodes
$Elements
92
1 15 2 1 1 1
2 15 2 2 2 2
3 15 2 3 3 3
4 15 2 4 4 4
5 8 2 1 1 1 5 9
6 8 2 1 1 5 6 10
7 8 2 1 1 6 7 11
8 8 2 1 1 7 8 12
9 8 2 1 1 8 2 13
10 8 2 2 2 2 14 18
11 8 2 2 2 14 15 19
12 8 2 2 2 15 16 20
13 8 2 2 2 16 17 21
14 8 2 2 2 17 3 22
15 8 2 3 3 3 23 27
16 8 2 3 3 23 24 28
17 8 2 3 3 24 25 29
18 8 2 3 3 25 26 30
19 8 2 3 3 26 4 31
20 8 2 4 4 4 32 36
21 8 2 4 4 32 33 37
22 8 2 4 4 33 34 38
23 8 2 4 4 34 35 39
24 8 2 4 4 35 1 40
25 9 2 1 1 45 46 54 66 67 68
26 9 2 1 1 56 50 58 69 70 71
27 9 2 1 1 51 47 52 72 73 74
28 9 2 1 1 53 50 56 75 69 76
29 9 2 1 1 54 46 64 67 77 78
30 9 2 1 1 47 51 63 72 79 80
31 9 2 1 1 49 55 65 81 82 83
32 9 2 1 1 55 57 65 84 85 82
33 9 2 1 1 50 44 58 86 87 70
34 9 2 1 1 14 15 50 19 88 89
35 9 2 1 1 33 34 43 38 90 91
36 9 2 1 1 15 16 44 20 92 93
37 9 2 1 1 24 25 41 29 94 95
38 9 2 1 1 15 44 50 93 86 88
39 9 2 1 1 6 42 51 96 97 98
40 9 2 1 1 5 6 51 10 98 99
41 9 2 1 1 6 7 42 11 100 96
42 9 2 1 1 16 17 49 21 101 102
43 9 2 1 1 46 47 48 103 104 105
44 9 2 1 1 46 43 47 106 107 103
45 9 2 1 1 44 16 49 92 102 108
46 9 2 1 1 45 43 46 109 106 66
47 9 2 1 1 33 43 45 91 109 110
48 9 2 1 1 32 33 45 37 110 111
49 9 2 1 1 34 35 52 39 112 113
50 9 2 1 1 25 26 54 30 114 115
51 9 2 1 1 7 8 53 12 116 117
52 9 2 1 1 47 43 52 107 118 73
53 9 2 1 1 23 24 55 28 119 120
54 9 2 1 1 43 34 52 90 113 118
55 9 2 1 1 42 7 53 100 117 121
56 9 2 1 1 41 25 54 94 115 122
57 9 2 1 1 24 41 55 95 123 119
58 9 2 1 1 2 14 59 18 124 125
59 9 2 1 1 8 2 59 13 125 126
60 9 2 1 1 17 3 60 22 127 128
61 9 2 1 1 4 32 61 36 129 130
62 9 2 1 1 35 1 62 40 131 132
63 9 2 1 1 1 5 62 9 133 131
64 9 2 1 1 3 23 60 27 134 127
65 9 2 1 1 26 4 61 31 130 135
66 9 2 1 1 57 48 58 136 137 138
67 9 2 1 1 51 42 63 97 139 79
68 9 2 1 1 42 53 56 121 76 140
69 9 2 1 1 55 41 57 123 141 84
70 9 2 1 1 48 47 63 104 80 142
71 9 2 1 1 46 48 64 105 143 77
72 9 2 1 1 57 58 65 138 144 85
73 9 2 1 1 41 54 64 122 78 145
74 9 2 1 1 56 48 63 146 142 147
75 9 2 1 1 48 57 64 136 148 143
76 9 2 1 1 23 55 60 120 149 134
77 9 2 1 1 54 26 61 114 135 150
78 9 2 1 1 52 35 62 112 132 151
79 9 2 1 1 53 8 59 116 126 152
80 9 2 1 1 49 17 60 101 128 153
81 9 2 1 1 5 51 62 99 154 133
82 9 2 1 1 14 50 59 89 155 124
83 9 2 1 1 32 45 61 111 156 129
84 9 2 1 1 44 49 65 108 83 157
85 9 2 1 1 51 52 62 74 151 154
86 9 2 1 1 45 54 61 68 150 156
87 9 2 1 1 55 49 60 81 153 149
88 9 2 1 1 50 53 59 75 152 155
89 9 2 1 1 48 56 58 146 71 137
90 9 2 1 1 42 56 63 140 147 139
91 9 2 1 1 57 41 64 141 145 148
92 9 2 1 1 58 44 65 87 157 144
$EndElements
$Periodic
3
0 2 1
1
2 1
0 3 4
1
3 4
1 2 4
6
2 1
3 4
14 35
15 34
16 33
17 32
$EndPeriodic
