$MeshFormat
2.2 0 8
$EndMeshFormat
$Nodes
1559
1 -3 0 0
2 0 0 0
3 0 1 0
4 -3 1 0
5 5 0 0
6 5 1 0
7 -2.800000000001483 0 0
8 -2.600000000002965 0 0
9 -2.400000000004448 0 0
10 -2.200000000005931 0 0
11 -2.000000000007356 0 0
12 -1.800000000007387 0 0
13 -1.60000000000739 0 0
14 -1.400000000006653 0 0
15 -1.200000000005176 0 0
16 -1.000000000003714 0 0
17 -0.8000000000029481 0 0
18 -0.6000000000022108 0 0
19 -0.4000000000014741 0 0
20 -0.200000000000737 0 0
21 -2.900000000000824 0 0
22 -2.700000000002224 0 0
23 -2.500000000003707 0 0
24 -2.30000000000519 0 0
25 -2.100000000006634 0 0
26 -1.900000000007391 0 0
27 -1.700000000007331 0 0
28 -1.500000000007282 0 0
29 -1.300000000005996 0 0
30 -1.100000000004445 0 0
31 -0.9000000000033311 0 0
32 -0.7000000000025794 0 0
33 -0.5000000000018424 0 0
34 -0.3000000000011054 0 0
35 -0.1000000000003687 0 0
36 0.1999999999998339 0 0
37 0.3999999999996642 0 0
38 0.5999999999995169 0 0
39 0.7999999999989964 0 0
40 0.9999999999984126 0 0
41 1.199999999997829 0 0
42 1.399999999997245 0 0
43 1.599999999996661 0 0
44 1.799999999996078 0 0
45 1.999999999995511 0 0
46 2.199999999995746 0 0
47 2.39999999999605 0 0
48 2.599999999996353 0 0
49 2.799999999996658 0 0
50 2.999999999996961 0 0
51 3.199999999997265 0 0
52 3.399999999997569 0 0
53 3.599999999997873 0 0
54 3.799999999998176 0 0
55 3.99999999999848 0 0
56 4.199999999998784 0 0
57 4.399999999999088 0 0
58 4.599999999999392 0 0
59 4.799999999999696 0 0
60 0.0999999999999225 0 0
61 0.2999999999997066 0 0
62 0.4999999999995914 0 0
63 0.6999999999992745 0 0
64 0.899999999998699 0 0
65 1.099999999998158 0 0
66 1.299999999997523 0 0
67 1.499999999996939 0 0
68 1.699999999996347 0 0
69 1.89999999999583 0 0
70 2.099999999995526 0 0
71 2.299999999995892 0 0
72 2.499999999995884 0 0
73 2.699999999996505 0 0
74 2.899999999996794 0 0
75 3.099999999997194 0 0
76 3.299999999997425 0 0
77 3.499999999997529 0 0
78 3.699999999998008 0 0
79 3.899999999998383 0 0
80 4.099999999998723 0 0
81 4.299999999998871 0 0
82 4.499999999999273 0 0
83 4.699999999999387 0 0
84 4.899999999999723 0 0
85 5 0.1999999999995579 0
86 5 0.399999999998975 0
87 5 0.5999999999989468 0
88 5 0.7999999999994734 0
89 5 0.09999999999981679 0
90 5 0.2999999999992664 0
91 5 0.4999999999986833 0
92 5 0.6999999999992101 0
93 5 0.8999999999997367 0
94 4.802934337789237 1 0
95 4.605868675578474 1 0
96 4.408803013367711 1 0
97 4.211737351156948 1 0
98 4.014671688946185 1 0
99 3.817606026735422 1 0
100 3.620540364524659 1 0
101 3.423474702313895 1 0
102 3.226409040103133 1 0
103 3.029343377892371 1 0
104 2.832277715681608 1 0
105 2.635212053470846 1 0
106 2.438146391260084 1 0
107 2.241080729049321 1 0
108 2.044015066838559 1 0
109 1.846949404627796 1 0
110 1.649883742417034 1 0
111 1.452818080206271 1 0
112 1.255752417995509 1 0
113 1.058686755784746 1 0
114 0.8616210935736857 1 0
115 0.6754006261033274 1 0
116 0.5279354193694874 1 0
117 0.4126673837893474 1 0
118 0.3225666617034423 1 0
119 0.2521383118261433 1 0
120 0.1970656622112005 1 0
121 0.1477992466584005 1 0
122 0.09853283110560052 1 0
123 0.04926641555279998 1 0
124 4.901467168894571 1 0
125 4.704401506683929 1 0
126 4.50733584447306 1 0
127 4.310270182262345 1 0
128 4.113204520051427 1 0
129 3.916138857840842 1 0
130 3.719073195629954 1 0
131 3.52200753341926 1 0
132 3.324941871208538 1 0
133 3.127876208997713 1 0
134 2.930810546787013 1 0
135 2.733744884576258 1 0
136 2.53667922236559 1 0
137 2.339613560154658 1 0
138 2.142547897943903 1 0
139 1.945482235733125 1 0
140 1.748416573522378 1 0
141 1.551350911311604 1 0
142 1.354285249100844 1 0
143 1.157219586890075 1 0
144 0.9601539246792468 1 0
145 0.7685108598385065 1 0
146 0.6016680227364074 1 0
147 0.4703014015794171 1 0
148 0.3676170227463949 1 0
149 0.2873524867647931 1 0
150 0.2246019870186722 1 0
151 0.1724324544348005 1 0
152 0.1231660388820005 1 0
153 0.07389962332919997 1 0
154 0.02463320777639999 1 0
155 -0.04891708962518569 1 0
156 -0.0978341792503678 1 0
157 -0.1467512688755499 1 0
158 -0.1956683585007436 1 0
159 -0.2499459278155224 1 0
160 -0.3192038968511642 1 0
161 -0.407652664902064 1 0
162 -0.5206098591783512 1 0
163 -0.6648665845892139 1 0
164 -0.8476480564789031 1 0
165 -1.043316414979812 1 0
166 -1.238984773480721 1 0
167 -1.434653131981631 1 0
168 -1.630321490483504 1 0
169 -1.825989848985861 1 0
170 -2.021658207488217 1 0
171 -2.217326565990573 1 0
172 -2.412994924492931 1 0
173 -2.608663282995287 1 0
174 -2.804331641497643 1 0
175 -0.02445854481259271 1 0
176 -0.07337563443777773 1 0
177 -0.1222927240629594 1 0
178 -0.1712098136881411 1 0
179 -0.222807143158133 1 0
180 -0.2845749123333458 1 0
181 -0.3634282808766423 1 0
182 -0.4641312620402076 1 0
183 -0.5927382218838085 1 0
184 -0.7562573205340737 1 0
185 -0.9454822357293535 1 0
186 -1.141150594230226 1 0
187 -1.336818952731208 1 0
188 -1.532487311232421 1 0
189 -1.728155669734689 1 0
190 -1.923824028237017 1 0
191 -2.119492386739214 1 0
192 -2.315160745241606 1 0
193 -2.510829103744092 1 0
194 -2.706497462246443 1 0
195 -2.902165820748864 1 0
196 -3 0.7999999999999998 0
197 -3 0.6000000000013869 0
198 -3 0.4000000000016644 0
199 -3 0.2000000000008322 0
200 -3 0.8999999999999206 0
201 -3 0.7000000000005973 0
202 -3 0.5000000000017788 0
203 -3 0.3000000000012483 0
204 -3 0.1000000000004161 0
205 -0.1434741005539658 0.4949639538682533 0
206 0.3544855145737456 0.5230241973436753 0
207 0.07263250970204427 0.701681970040119 0
208 -0.1653984292239214 0.7429868035081109 0
209 -0.57798251846339 0.5355721131546298 0
210 0.300268754164725 0.7830722514300319 0
211 -0.02445854481259285 0.8397796930313596 0
212 0.1209575034571065 0.8558197242520288 0
213 0.8698879736913655 0.4975920062200275 0
214 -1.112274615208749 0.4821172547883149 0
215 -2.321528801952064 0.5214975042874023 0
216 -1.72942657315871 0.5414346133453991 0
217 4.317230506066875 0.521137469766412 0
218 -0.3634282808766141 0.8055774420961718 0
219 3.718240140343892 0.5263486804340853 0
220 3.124464618800406 0.4981619501673491 0
221 2.535112001430686 0.5222729991462276 0
222 1.949306705934211 0.5318503481209625 0
223 1.376199520838087 0.5045955508279594 0
224 0.5667519083806546 0.6820403432328366 0
225 -0.1209740997724416 0.8891972895352056 0
226 -0.3154028912258963 0.5899555414329596 0
227 0.2259015257952249 0.896901575321491 0
228 0.1332815064590763 0.4674740857793547 0
229 -0.222807143158133 0.902624756528809 0
230 -0.3365857271373549 0.292972689964676 0
231 -0.5927382218837824 0.7809393100307139 0
232 0.04239878896843104 0.9093352665021013 0
233 -0.0546230358886317 0.7200010350607998 0
234 4.642042959703892 0.6414691701679396 0
235 -2.648103775810188 0.6439527388224007 0
236 -1.416591842844459 0.6483535250237262 0
237 0.2135165698858291 0.6221112357617907 0
238 0.6133226031830301 0.3147619920807706 0
239 2.221987192471729 0.342210057972521 0
240 2.815721509113875 0.3421179717296495 0
241 4.014877274775578 0.6630125430304291 0
242 3.423658529997131 0.6632434928279624 0
243 -2.021940404620218 0.6644107855577244 0
244 1.659596935031995 0.3293396148849855 0
245 2.243670050684004 0.6642843964050258 0
246 2.835088742237619 0.6645205012451068 0
247 -0.02584347000342192 0.2573217543421821 0
248 -2.039080444227928 0.3236599691846556 0
249 3.412410540384392 0.3384691818162459 0
250 1.659260192313531 0.6692939687260017 0
251 4.035071875345935 0.3235309144798985 0
252 0.2878419079750912 0.2546522132249097 0
253 -0.83567161832576 0.325687610707399 0
254 -0.05001728359485583 0.9238269794345136 0
255 -2.6824806070648 0.3175193929361546 0
256 -1.456159379174816 0.3078576367593777 0
257 4.683350567303398 0.3166494326962617 0
258 -0.8579389854113706 0.6764433626464188 0
259 0.008231413164091993 0.5755393009359965 0
260 0.3371507852394064 0.86549733060082 0
261 1.117066321623114 0.6907357158153528 0
262 1.123620253263037 0.3076255293619666 0
263 0.1731956535779258 0.7610334247514208 0
264 0.05400334365917281 0.7977284495800741 0
265 0.1253967956147543 0.9281010276912907 0
266 -0.1035633386709945 0.8047403728316603 0
267 -0.180376356449446 0.835781591379303 0
268 -0.1427474564720987 0.6143598405899096 0
269 0.8213212658959528 0.7448289736892889 0
270 -1.141150594230267 0.7550766549651072 0
271 4.419240614494352 0.2819322275758921 0
272 -2.420259598318054 0.2814868501638464 0
273 -2.318219098519206 0.7355025268816212 0
274 2.499999999996201 0.2428192097939462 0
275 -1.72673636842141 0.7408261542852648 0
276 4.313238686887141 0.7351436996222218 0
277 3.09999999999711 0.2419451824854135 0
278 1.878366159779142 0.2503800284579382 0
279 -1.184083391350071 0.3036585251160374 0
280 3.718981397901469 0.7667941737155947 0
281 -1.679651343456743 0.2431903936866149 0
282 3.128611980102344 0.8277964258862269 0
283 3.702412369316388 0.1918939044522371 0
284 2.537124324332448 0.7677012905671073 0
285 -0.3231033584603473 0.8817850627742525 0
286 -0.2813646143570585 0.8279458039592033 0
287 1.94618977600055 0.7680741867009367 0
288 0.4526516139942598 0.8927194696613399 0
289 1.366486163856511 0.758848355717514 0
290 -0.5057481401448113 0.6731786970714543 0
291 0.8719146397943754 0.302557753884009 0
292 1.423609358527935 0.2460517223798095 0
293 -0.4792227468214801 0.8880358369920115 0
294 -0.2846447787372685 0.707193174506812 0
295 -0.5828191177481796 0.2454556065294977 0
296 -0.1734580549666978 0.9351624300604779 0
297 0.4193914916341616 0.6706956257669844 0
298 0.586036920998188 0.4968680703409374 0
299 0.2863689102957383 0.9367998714830618 0
300 -0.009971695884513873 0.7725849622132657 0
301 0.1994263180776023 0.831331455222614 0
302 -0.0968633686618621 0.9429571441720312 0
303 0.1835976137102181 0.9400532930729512 0
304 0.1113845983079017 0.6066243898800248 0
305 0.001951211650004899 0.9430539011638962 0
306 0.06596136466122837 0.8536609188076993 0
307 0.1251610485361039 0.778821758581526 0
308 -0.07037140060986809 0.8746242763735813 0
309 0.3890288768223412 0.7856668941362317 0
310 0.07389962332920025 0.9516681890309552 0
311 -0.7408927842512371 0.8392524620812992 0
312 4.210854518312597 0.2126224808980974 0
313 4.805126909076566 0.4971722665168634 0
314 -2.813335882868393 0.5018660509112298 0
315 -2.212876292188797 0.2166878386737656 0
316 4.522738846642416 0.4612607318157692 0
317 -2.526308747232523 0.4643270236578835 0
318 0.1613737537391811 0.8872650576134931 0
319 0.6080110084971567 0.8581331861744843 0
320 -1.315983978613501 0.4741948995112778 0
321 -0.2661920814795575 0.4575385281044446 0
322 4.483756315512368 0.8242634849926764 0
323 4.790188621010802 0.7903540963571425 0
324 -2.488040304788203 0.8250665757754422 0
325 -2.810727151460926 0.8084444468488585 0
326 -0.9993573846463075 0.2096182310809089 0
327 -0.4330434280181246 0.4728954823264884 0
328 -0.7615800212589039 0.5184631833084612 0
329 -1.551840708350009 0.8253416133581002 0
330 -0.003136904024112609 0.4499835856331248 0
331 2.078512739240757 0.1722211071280449 0
332 -0.01185519257066423 0.8935628332708927 0
333 2.679617686812632 0.171168545697003 0
334 3.278771733867743 0.1688050843393148 0
335 -1.874187393137975 0.1665844086337849 0
336 3.895466001611727 0.1767057035825693 0
337 1.164195220454648 0.510547415369913 0
338 3.920912291764328 0.818320239263792 0
339 -1.899760331868389 0.8267578035154975 0
340 2.740601805538966 0.8219999686937174 0
341 4.138167478272931 0.824415166678433 0
342 3.329827450812239 0.8285443752725057 0
343 -2.1402855244654 0.8256686383457443 0
344 2.149289251453949 0.821837127366977 0
345 3.517810083140221 0.8187894633926797 0
346 1.532035721755346 0.830589104564643 0
347 -1.309416839200406 0.8212255537844815 0
348 0.008597359344528642 0.6604265709152985 0
349 3.324134051064918 0.4938857753866145 0
350 3.9283489040612 0.5004942707474651 0
351 2.732448660814665 0.5057116582505249 0
352 2.141194949995031 0.5051276913980173 0
353 0.4694378609010122 0.1826083153079107 0
354 -1.934827838966648 0.503768960848978 0
355 -1.523849358096149 0.5018964143813738 0
356 -0.1529974723794481 0.3497554155184923 0
357 0.1518624085005073 0.6819562174612765 0
358 1.568753032814051 0.5059676602356971 0
359 -0.2811772465478953 0.9387227735267233 0
360 2.324948136393326 0.5064223413029328 0
361 2.916919315370876 0.5021444826281063 0
362 3.509823790177461 0.5052070546754037 0
363 2.337184714622627 0.8173283370104782 0
364 -2.121620112454075 0.5035021832287662 0
365 4.116397259886493 0.5032214106622456 0
366 2.928547957856385 0.8273628105633036 0
367 -0.1704211736322895 0.8836200742397835 0
368 -0.2157110907795232 0.9584085969345764 0
369 1.744704630437472 0.8241186320776417 0
370 0.2442845151520703 0.7105160859133167 0
371 0.09020400397354147 0.8945045797274004 0
372 -0.1804231245892107 0.1743461236849128 0
373 -0.06254277028962231 0.7854082936359333 0
374 1.75323601314869 0.5109542589325886 0
375 0.4344369854383204 0.3922302203076642 0
376 2.926252490212518 0.1725761856790385 0
377 0.7438409727074036 0.6083290679290561 0
378 0.1247138788264562 0.3288148443803307 0
379 0.9624297979340916 0.8316881836128232 0
380 -0.1120665789133016 0.7549135117877561 0
381 4.450962917302559 0.6346803660946866 0
382 0.02287584370554821 0.8312623481566994 0
383 2.327775287788462 0.1732228890554674 0
384 -2.814226759739743 0.1857732402604224 0
385 -2.457333762531719 0.637088973521445 0
386 0.2611098568401461 0.4039546485510733 0
387 3.498615312035148 0.1665265019410304 0
388 4.814754042445486 0.1852459575544584 0
389 1.243528469130092 0.1798474642523912 0
390 0.7091125173126059 0.1503080691429986 0
391 -0.2157650992141721 0.5614843552445151 0
392 1.721133989276453 0.142266858654236 0
393 -0.06687890324044189 0.6390731516578244 0
394 -0.588176456221324 0.8997562834577424 0
395 0.2574357743158879 0.8373454366904101 0
396 0.2290144047677051 0.954750947975501 0
397 0.1477853861329514 0.1581284222956971 0
398 -1.527746102663949 0.1343484551459724 0
399 2.609471156831768 0.3564303466315663 0
400 2.021144446352084 0.3643270884595673 0
401 -0.6841637642200994 0.6638558795471101 0
402 4.539156580315584 0.149842067795999 0
403 -2.539520516913716 0.1497756123967753 0
404 -0.9710759224442007 0.8304166076177797 0
405 -0.7382700157503744 0.1641902718179364 0
406 -0.2040413924791704 0.6787312103834785 0
407 -0.4608742992049136 0.7833073944068449 0
408 0.3184941896224636 0.6329350840459868 0
409 0.7654671521826862 0.8784364906011332 0
410 -0.6644254184536164 0.3933142494824927 0
411 1.186654554432815 0.8380224177471174 0
412 -1.814821980728572 0.3598741340869165 0
413 3.204701529947976 0.3489603368360293 0
414 -0.1240246159821927 0.8462365718543198 0
415 0.03871055110824306 0.751598101273645 0
416 -0.03475505485064483 0.963861806436426 0
417 3.811610119443607 0.3456856554572925 0
418 0.9573515959241359 0.6172873491395071 0
419 1.038905812085304 0.1603624524922916 0
420 3.231855685942002 0.6569064317568617 0
421 -1.315339942265471 0.1460783214794638 0
422 3.860272001769293 0.6549939814382733 0
423 1.288967592197465 0.357876823265588 0
424 -0.2195672052618595 0.7899756559623824 0
425 -1.590685288227812 0.6536735751495221 0
426 -1.858527430108398 0.6524920202315914 0
427 2.085930146813549 0.6582347499983839 0
428 2.676075106870877 0.6564412835805368 0
429 1.821236012391021 0.6492025004128913 0
430 1.485003767934161 0.6495561069906818 0
431 3.577702788312035 0.6560765730091451 0
432 4.179982241177804 0.6493860579519484 0
433 -0.4404868089902906 0.1606558520013675 0
434 0.7370006220748726 0.4440217780909601 0
435 -2.184718788402192 0.6501163276602516 0
436 4.068278479053504 0.142571819792113 0
437 -0.3765413746398557 0.710302229082911 0
438 -1.235974528341093 0.6266187868593568 0
439 -1.002406053275297 0.3704658028616685 0
440 -2.063411277025254 0.1452982851172968 0
441 -0.135366533164435 0.9619464064008015 0
442 2.395607845492618 0.6556018728863543 0
443 3.021233595470786 0.6591138719498099 0
444 0.3638056286449977 0.941484670823083 0
445 1.009798352561936 0.442306371878352 0
446 -0.3449568526898978 0.9416357714438046 0
447 0.1501583535776227 0.9622730279837313 0
448 1.269249590471338 0.6302222422284876 0
449 4.852498672170527 0.3365457895762766 0
450 -2.829734007343807 0.344021355653129 0
451 1.560868056566058 0.1435316391838062 0
452 0.1209146015124887 0.7367242509792972 0
453 -1.02543402752755 0.6450656047586102 0
454 0.2277951272769478 0.5196439391526725 0
455 0.08309279725587131 0.7625014921890598 0
456 -2.219585851326706 0.3749120189382606 0
457 3.603500439768915 0.3483890572012254 0
458 -0.1508327540836193 0.7957724178872554 0
459 0.09844071581471478 0.8143752462856738 0
460 4.215844999572324 0.3737125595435294 0
461 2.997993957755201 0.3519443747973167 0
462 -2.851686108973405 0.6530767659439572 0
463 4.850910116265537 0.6464765111244679 0
464 -0.08907936322193627 0.9076513430519233 0
465 -1.640781726922998 0.3908506384519364 0
466 0.03636605512578018 0.9627966614312325 0
467 2.400683437725754 0.3552044048446822 0
468 0.2332533271014945 0.7839638259679237 0
469 -0.2277228806220646 0.8517150245865044 0
470 -0.2699095526788362 0.8811420286093795 0
471 -0.06787689212263855 0.9677741529208754 0
472 0.1119742543422449 0.9651434116168899 0
473 -1.129774309277725 0.1310665741294066 0
474 -0.1242926327029276 0.6916775921646465 0
475 4.343314351205343 0.1358624889982122 0
476 0.4975010237851405 0.7881219163228287 0
477 4.656810527447022 0.8589382204531435 0
478 -0.9374745737369821 0.522974261224231 0
479 0.3312305162285135 0.7147780842014717 0
480 0.01898445199039011 0.8655202119537505 0
481 -2.344289682862358 0.1357506855941264 0
482 -2.659042359685419 0.8598927652108088 0
483 -0.4972960921116619 0.3466810391165324 0
484 0.6943881969709511 0.7523347245471913 0
485 0.1496442336545406 0.8191163522115097 0
486 0.4705570553357973 0.5611857716788861 0
487 1.852330052049224 0.3973702677712084 0
488 -0.07416936197165251 0.5614163733260137 0
489 0.299999999999749 0.1079817218267599 0
490 -0.07490983877027059 0.8308713045036608 0
491 1.468084586702149 0.390796718428754 0
492 -0.0006933871463430753 0.7246675547760386 0
493 -0.8764663274506601 0.1316982500818914 0
494 -0.1723226951010259 0.9724935935260003 0
495 -1.141150594230267 0.8970781688730228 0
496 0.2746060777408842 0.8851849533957293 0
497 4.663314820681568 0.4791379002992084 0
498 0.06788797580431678 0.529124804706916 0
499 0.1248015104624947 0.8908574947780888 0
500 -0.3936470966880185 0.8876710209180477 0
501 -0.3114991321438135 0.1255949331301913 0
502 -0.134931354707103 0.9252778091752899 0
503 1.899999999995794 0.1019474866030766 0
504 0.8839865938379388 0.1226456551038599 0
505 -0.3051092507745312 0.768198861121496 0
506 1.35428524910089 0.8992454328894072 0
507 4.69095317982272 0.122110056124027 0
508 -2.690891044793473 0.1221780759270926 0
509 -0.4323860470410616 0.5869652725549908 0
510 -2.676594813984355 0.457763666433754 0
511 2.499999999996201 0.1008181533217129 0
512 -2.903764698239642 0.9021111117122146 0
513 -2.315269183205788 0.8884161803654149 0
514 4.890760185094083 0.8894501057351004 0
515 -1.700000000007389 0.1004718207127165 0
516 -1.727530200289352 0.8892496705323221 0
517 3.09999999999711 0.1003067530199653 0
518 4.3107142571486 0.8882959017340489 0
519 3.669760881213064 0.8833970868577974 0
520 3.768293712318446 0.8833970868577974 0
521 3.751206184657282 0.09594695222611857 0
522 3.651206184657131 0.09594695222611857 0
523 3.078977678997358 0.9138982129431135 0
524 3.177510510102739 0.9138982129431135 0
525 2.487635357796266 0.8838506452835537 0
526 2.586168188901647 0.8838506452835537 0
527 1.896569590314173 0.8840370933504684 0
528 1.995102421419554 0.8840370933504684 0
529 -0.1847199108515459 0.7108590069457947 0
530 -0.1924828172428905 0.7664812297352466 0
531 -0.211804298870515 0.7343534331729304 0
532 -0.01721512034855336 0.8061823276223126 0
533 0.006452073910517169 0.8019236551849825 0
534 -0.000791350553522318 0.8355210205940296 0
535 -0.06019434210236196 0.8992256279040475 0
536 -0.04111329659026616 0.8840935548222371 0
537 -0.03093623808276003 0.9086949063527032 0
538 -0.04741497271123046 0.8572019847024704 0
539 -0.01815686869162854 0.8666712631511262 0
540 -0.5492431810142968 0.7270590035510841 0
541 -0.6384509930519409 0.7223975947889121 0
542 -0.5949559521824553 0.6685172883092823 0
543 0.09200855400497299 0.6541531799600719 0
544 0.04061493452328645 0.6810542704777087 0
545 0.05999097882621518 0.6335254803976617 0
546 0.7426186214887027 0.3086598729823898 0
547 0.8044576309346241 0.3732897659874845 0
548 0.6751616126289514 0.3793918850858654 0
549 0.1411656285981438 0.8715423909327609 0
550 0.1353008685558235 0.8374680382317692 0
551 0.1555089936968609 0.8531907049125014 0
552 -0.01292173500171096 0.1286608771710911 0
553 -0.1031332972963163 0.2158339390135475 0
554 -0.09021156229460536 0.08717306184245642 0
555 0.02201582388732946 0.7851567058966699 0
556 0.03843959368236051 0.8144953988683867 0
557 0.3187097697020658 0.824284791015426 0
558 0.2972932797776472 0.851421383645615 0
559 0.2788522642403065 0.810208844060221 0
560 -2.551370102691427 0.2995031215500005 0
561 -2.473284172775289 0.372906936910865 0
562 -2.604394677148662 0.390923208297019 0
563 -2.370894200135059 0.4014921772256244 0
564 -2.423918774592293 0.4929122639726429 0
565 4.368235560280613 0.401534848671152 0
566 4.470989730568384 0.3715964796958307 0
567 4.419984676354646 0.4911991007910906 0
568 4.551295590898874 0.2992908301360769 0
569 4.603044706972907 0.3889550822560154 0
570 0.2126639219364136 0.8641165152720525 0
571 0.193637639767203 0.8920833164674919 0
572 0.1804000359083917 0.8592982564180536 0
573 0.6612175602478181 0.2325350306118846 0
574 0.7905135785534907 0.2264329115135038 0
575 -1.320121385262443 0.3057580809377075 0
576 -1.250033684981786 0.3889267123136576 0
577 -1.386071678894158 0.3910262681353277 0
578 -1.14817900327941 0.3928878899521762 0
579 -1.214129296911125 0.4781560771497964 0
580 0.3446488154935331 0.7843695727831318 0
581 0.3630898310308738 0.8255821123685259 0
582 -1.093244722312684 0.3370621639888529 0
583 -1.057340334242023 0.4262915288249917 0
584 -0.03229736588657278 0.7462929986370328 0
585 -0.03625723308706809 0.7789966279245994 0
586 -0.058582903089127 0.7527046643483666 0
587 0.0738926930664757 0.07906421114784853 0
588 0.06097095806476474 0.2077250883189396 0
589 0.8709013067428705 0.4000748800520182 0
590 0.8034442978831191 0.4708068921554938 0
591 -0.08334480740096664 0.7374572734242779 0
592 -0.1181796058081146 0.7232955519762013 0
593 -0.08945783429577966 0.7058393136127232 0
594 4.2665377528196 0.4474250146549707 0
595 4.317542807033337 0.3278223935597108 0
596 -0.4999163029999157 0.9440179184960058 0
597 -0.4434377058617721 0.9440179184960058 0
598 -0.08730467460146193 0.7701609027118448 0
599 1.768981547405568 0.2898598216714618 0
600 1.690365462154224 0.2358032367696108 0
601 1.799750074527797 0.1963234435560871 0
602 -0.5418653293041007 0.6043754051130421 0
603 -0.6310731413417447 0.59971399635087 0
604 -0.09567275019115484 0.8819107829543935 0
605 -0.1224993578773172 0.8677169306947627 0
606 -0.0971980082960304 0.8604304241139505 0
607 0.4902935166818736 0.9463597348306699 0
608 0.5303313112457083 0.8754263279179121 0
609 0.567973213933322 0.9290665930872422 0
610 -2.31992272482238 0.3281994345510535 0
611 -2.270557326639385 0.4482047616128314 0
612 4.479198597404968 0.2158871476859455 0
613 4.611253573809491 0.2332457502461303 0
614 -0.09946722737623165 0.8385539381789903 0
615 -0.07264061969006934 0.852747790438621 0
616 -1.56790536131578 0.2755240152229963 0
617 -1.603698723060346 0.1887694244162936 0
618 -1.491952740919382 0.221103045952675 0
619 0.06507230121748185 0.4587288357062398 0
620 0.06078848740117176 0.3893992150067278 0
621 0.1289976926427662 0.3981444650798427 0
622 -2.611000561989258 0.2336475026664649 0
623 -2.479890057615885 0.2156312312803109 0
624 3.600513840675768 0.1792102031966338 0
625 3.549307656016511 0.08326325097051519 0
626 3.819946844832899 0.7925572064896933 0
627 3.869259159249875 0.909160119631896 0
628 3.56917522383244 0.9093947316963398 0
629 3.618395740520845 0.7927918185541372 0
630 -0.3000238349815824 0.6485743579698857 0
631 -0.2597221418525333 0.6343433759082191 0
632 -0.2443430856082194 0.6929621924451452 0
633 -1.548470553048907 0.349354137605657 0
634 -1.660216535189871 0.3170205160692757 0
635 3.847733000804952 0.08835285179128466 0
636 3.798939185464057 0.1842998040174032 0
637 3.229219715457292 0.8281704005793663 0
638 3.278118245457686 0.9142721876362528 0
639 2.638863064935707 0.7948506296304123 0
640 2.687906929504906 0.9109999843468587 0
641 0.9977674465287063 0.3050916416229879 0
642 1.066709302912487 0.3749659506201594 0
643 0.9408564961781556 0.3724320628811805 0
644 0.9398431631266506 0.4699491890491898 0
645 0.1903316379607093 0.9700266465364755 0
646 0.1736120078944116 0.9811365139918656 0
647 0.1668779836439204 0.9511631605283413 0
648 2.04773951372725 0.7949556570339569 0
649 2.096652159146254 0.9109185636834884 0
650 1.060773408189392 0.5639173822547101 0
651 0.9835749742430357 0.5297968605089296 0
652 1.086996786508292 0.4764268936241325 0
653 2.978945667874378 0.9136814052816518 0
654 3.028579968979365 0.8275796182247652 0
655 2.387665552941355 0.9086641685052391 0
656 2.437154519477537 0.7925148137887927 0
657 0.4326594988918037 0.9463597348306699 0
658 -2.807113379870612 0.09288662013021119 0
659 -2.907113379869871 0.09288662013021119 0
660 -2.907113379869871 0.1928866201306273 0
661 1.795827017532634 0.9120593160388208 0
662 1.845447203219011 0.7960964093892893 0
663 1.140630771038881 0.6006415655926329 0
664 1.037208958773625 0.6540115324774299 0
665 1.41180467926259 0.1230258611899047 0
666 1.333568913829013 0.2129495933161004 0
667 1.321764234563668 0.08992373212619562 0
668 4.907377021222743 0.1926229787770081 0
669 4.907377021222743 0.09262297877722919 0
670 4.807377021222591 0.09262297877722919 0
671 1.865348105914183 0.3238751481145733 0
672 1.755963493540609 0.363354941328097 0
673 0.1745352758660714 0.8252239037170619 0
674 -0.08305305448030839 0.7950743332337968 0
675 -0.107814958792148 0.7798269423097082 0
676 -1.385749660720143 0.2269679791194207 0
677 -1.249711666807771 0.2248684232977506 0
678 0.1544972046624862 0.934077160382121 0
679 0.1433852746769677 0.9076830426523919 0
680 0.1724856837246996 0.9136591753432222 0
681 0.1624505840968654 0.6143678128209078 0
682 0.1695898627924247 0.5631341645163486 0
683 0.2206558485813885 0.5708775874572316 0
684 -0.04350065755110757 0.8125939933336465 0
685 -0.3763047587959809 0.9708178857219023 0
686 -0.4006498807950413 0.9438355104590239 0
687 -0.3693019746889582 0.9146533961809262 0
688 4.315234596477008 0.6281405846943169 0
689 4.384096711684717 0.5779089179305492 0
690 4.38210080209485 0.6849120328584541 0
691 -2.319873950235634 0.6285000155845117 0
692 -2.387776430525463 0.6862957502015331 0
693 -2.389431282241891 0.5792932389044236 0
694 0.3949011996168331 0.8791084001310799 0
695 0.4208402454083005 0.8391931818987858 0
696 4.246610464032472 0.6922648787870851 0
697 4.248606373622339 0.5852617638591802 0
698 2.536118162881567 0.6449871448566675 0
699 2.605593554150781 0.5893571413633822 0
700 2.606599715601662 0.7120712870738221 0
701 -1.72808147079006 0.6411303838153319 0
702 -1.660055930693261 0.5975540942474606 0
703 -1.658710828324611 0.6972498647173935 0
704 -0.01449018701376726 0.3536526699876535 0
705 0.04943520441151711 0.2930682993612564 0
706 -2.253123795177128 0.5858069159738269 0
707 -2.251468943460699 0.6928094272709364 0
708 0.2660053797541464 0.6275231599038887 0
709 0.2731446584497057 0.5762895115993296 0
710 3.718610769122681 0.6465714270748399 0
711 3.648342093106752 0.7114353733623699 0
712 3.647971464327963 0.5912126267216152 0
713 3.789256071056593 0.5906713309361793 0
714 3.789626699835381 0.7108940775769339 0
715 1.947748240967381 0.6499622674109496 0
716 2.01761842637388 0.5950425490596732 0
717 2.016059961407049 0.7131544683496603 0
718 1.883712894195785 0.708638343556914 0
719 1.885271359162616 0.5905264242669269 0
720 2.466366084912533 0.7116515817267308 0
721 2.465359923461651 0.5889374360162909 0
722 -1.792631899264904 0.6966590872584281 0
723 -1.793977001633554 0.5969633167884952 0
724 -0.06075096956453679 0.6795370933593121 0
725 -0.09558576797168475 0.6653753719112354 0
726 -0.2655839952200342 0.5757199483387374 0
727 -0.2099032458466712 0.6201077828139968 0
728 4.469578290157337 0.07492103389799948 0
729 4.441235465760464 0.1428522783971056 0
730 4.371657175602216 0.06793124449910611 0
731 -2.469760258459082 0.07488780619838765 0
732 -2.372144841433403 0.0678753427970632 0
733 -2.441905099888037 0.1427631489954508 0
734 1.276570359144663 0.7984353867323157 0
735 1.227952072452076 0.7341223299878025 0
736 1.317867877163924 0.6945352989730007 0
737 0.122333052383489 0.5370492378296897 0
738 0.08963628705610925 0.5678745972934705 0
739 0.1005847411316965 0.4982994452431354 0
740 -0.252105991999564 0.7485844152345972 0
741 0.6417058173002421 0.9290665930872422 0
742 0.9554102259398396 0.2314601031881503 0
743 1.08126303267417 0.2339939909271291 0
744 0.3882365062171725 0.9707423354115414 0
745 0.4082286213196288 0.9171020702422115 0
746 3.164583074374191 0.4235611435016892 0
747 3.061229288277803 0.4250531624823329 0
748 3.101347743851588 0.350452355816673 0
749 0.394461250006033 0.4576272088256698 0
750 0.4524970203870589 0.4767079959932751 0
751 0.4125212849547715 0.5421049845112806 0
752 0.3504782069422021 0.9034910007119514 0
753 0.2047495697527215 0.9184774341972211 0
754 1.151860438027964 0.7643790667812351 0
755 1.193157956047226 0.6604789790219201 0
756 1.541603146779965 0.2876956686323975 0
757 1.492238707546996 0.1947916807818078 0
758 1.610232495799026 0.2364356270343959 0
759 0.02217500030921797 0.9261945838329988 0
760 -0.004951990460329663 0.9183083672173944 0
761 0.0152717981988834 0.901449049886497 0
762 -0.02403303597242547 0.9334404402992049 0
763 0.2692536110609408 0.9683999357415309 0
764 0.3044677859995903 0.9683999357415309 0
765 3.764925129893749 0.4360171679456889 0
766 3.660870290056404 0.4373688688176554 0
767 3.707555279606261 0.3470373563292589 0
768 1.480434028281651 0.0717658195919031 0
769 1.563840760867072 0.3600681666568697 0
770 1.445846972615042 0.3184242204042817 0
771 -1.091720387998189 0.2566383780984731 0
772 -1.000881718960802 0.2900420169712887 0
773 0.2561352180454816 0.9168507234022764 0
774 0.2576916575317217 0.9457754097292814 0
775 0.227457965281465 0.925826261648496 0
776 3.152350764972543 0.2954527596607214 0
777 3.048996978876156 0.2969447786413651 0
778 0.1489788001180116 0.9811365139918656 0
779 -0.5914095588751952 0.1227278032647489 0
780 -0.5202434044962507 0.08032792600068377 0
781 -0.511652963369235 0.2030557292654326 0
782 0.3058784314901454 0.8753411419982746 0
783 0.2660209260283861 0.8612651950430696 0
784 3.178160152371204 0.5775341909621055 0
785 3.126544640706394 0.6580101518533358 0
786 3.072849107135596 0.5786379110585795 0
787 0.05814920614881564 0.9305017277665282 0
788 0.06630139647098626 0.9019199231147508 0
789 0.08205181365137086 0.9230863843791778 0
790 2.572291579131226 0.4393516728888969 0
791 2.46789771957822 0.4387387019954549 0
792 2.505077297278761 0.3558173757381242 0
793 -0.1902115622949739 0.08717306184245642 0
794 0.180538316868012 0.4935590124660136 0
795 -1.419916668354825 0.4880456569463258 0
796 -1.490004368635482 0.4048770255703757 0
797 -1.36628791072898 0.5612742122675021 0
798 -1.470220600470304 0.57512496970255 0
799 1.22176423456396 0.08992373212619562 0
800 1.141217140607698 0.1701049583723414 0
801 1.119452906041566 0.08018122624614582 0
802 -0.07330550228903923 0.4724737697506891 0
803 -0.148235786466707 0.4223596846933728 0
804 -0.07806718820178035 0.3998695005758086 0
805 -0.6605445667492771 0.2048229391737171 0
806 -0.6691350078762925 0.08209513590896822 0
807 -2.569760258458341 0.07488780619838765 0
808 0.8068644731993846 0.5529605370745417 0
809 0.9136197848077507 0.5574396776797673 0
810 0.8505962843157697 0.6128082085342816 0
811 4.569578290157488 0.07492103389799948 0
812 0.09964820947197729 0.939884608361123 0
813 0.1078003997941479 0.9113028037093456 0
814 0.1316235034042045 0.6442903036706507 0
815 0.1122474591012758 0.6918190937506978 0
816 3.180233833022173 0.7423514288215443 0
817 3.074922787786565 0.7434551489180183 0
818 3.757011244379997 0.2687897799547648 0
819 3.652956404542651 0.2701414808267313 0
820 0.7825811193016782 0.6765790208091724 0
821 0.8893364309100443 0.681058161414398 0
822 -0.08942047119143501 0.3035385849303372 0
823 0.05980800573599686 0.5910818454080107 0
824 0.008414386254310319 0.6179829359256475 0
825 -0.5055129732407573 0.5042337977405591 0
826 -0.5376393052875259 0.4411265761355811 0
827 -0.4651697600648932 0.4097882607215104 0
828 0.5347189304502645 0.09130415765395536 0
829 0.6545562586560614 0.0751540345714993 0
830 0.5892751891068091 0.1664581922254547 0
831 0.1377775745961885 0.945187027837511 0
832 2.554735578413984 0.2996247782127562 0
833 2.450341718860977 0.2990118073193142 0
834 -0.3001905716995298 0.9693613867633617 0
835 -0.2655615871817089 0.9693613867633617 0
836 -0.002737046411101368 0.852649952492555 0
837 0.003564629709862942 0.8795415226123215 0
838 -0.4364349217547493 0.8878534289550296 0
839 0.9120254457538886 0.9158440918064116 0
840 0.8135441228781859 0.9392182453005666 0
841 0.8639484750583889 0.8550623371069781 0
842 0.02093014784796916 0.8483912800552249 0
843 -0.2907974863527269 0.5237470347687021 0
844 -0.3742231596220105 0.531425511879724 0
845 -0.349617754748841 0.4652170052154665 0
846 -0.3432658196684807 0.8436812524352122 0
847 -0.3223964476168363 0.8167616230276875 0
848 -0.3022339864087029 0.8548654333667278 0
849 0.2063060092389616 0.947402120524226 0
850 -0.07344032612835896 0.9333920618032725 0
851 -0.05894708785874719 0.9458005661776945 0
852 -0.08237013039225033 0.9553656485464533 0
853 -0.1792562778431354 0.5879220979172124 0
854 -0.1733944244756346 0.6465455254866941 0
855 -0.2756370835179473 0.8545439162842914 0
856 -0.2965064555695917 0.8814635456918161 0
857 4.902563454538283 0.5485861332579052 0
858 4.902563454538283 0.4485861332579192 0
859 0.2405763582969242 0.9773754739877505 0
860 -2.906667941434196 0.4509330254564471 0
861 -2.906667941434196 0.5509330254563083 0
862 0.06158301944100011 0.9758340945154775 0
863 0.08621622721740038 0.9758340945154775 0
864 -0.1981325990624154 0.9188935932946435 0
865 -0.1966141583952112 0.8931224153842963 0
866 -0.1719396142994936 0.9093912521501307 0
867 4.315047566403474 0.2472773542369947 0
868 4.21334975894246 0.2931675202208134 0
869 0.3364898520981046 0.577979640694831 0
870 0.2911403209253467 0.521334068248174 0
871 -0.5359804843526312 0.8344875735113627 0
872 -0.526806260544348 0.7821233522187794 0
873 -0.4700485230131969 0.8356716156994282 0
874 4.44627966444004 0.9121317424963382 0
875 4.544812495545421 0.9121317424963382 0
876 0.09345943405916743 0.8547403215298641 0
877 0.105580753715324 0.8751621519897146 0
878 0.07808268431738492 0.8740827492675498 0
879 -2.548351793891745 0.912533287887721 0
880 -2.450517614640566 0.912533287887721 0
881 0.4930717000074081 0.6763679844999104 0
882 0.4449742734849794 0.6159406987229352 0
883 0.5186544818582259 0.6216130574558614 0
884 0.05567153040514367 0.7266400356568821 0
885 0.01900858198094999 0.7381328280248418 0
886 0.0359695612778506 0.7131747624080789 0
887 0.5102369532182542 0.4445491453243008 0
888 0.5282969881669927 0.5290269210099118 0
889 0.03938242204710561 0.9360659639666669 0
890 0.01915863338789254 0.9529252812975644 0
891 -1.056113258337234 0.7927466312914435 0
892 -1.083292310878908 0.7000711298618587 0
893 -0.9982549749858752 0.7377411061881949 0
894 1.019452906041858 0.08018122624614582 0
895 0.5763944146894213 0.589454206786887 0
896 -2.316567945253426 0.249087344418806 0
897 -2.216231071757751 0.2957999288060131 0
898 0.1625290310392165 0.7214948211063487 0
899 0.1980734618262888 0.6962361516872966 0
900 0.2087400843649981 0.7357747553323688 0
901 0.05513283922749021 0.9572324252310939 0
902 4.381277482849848 0.2088973582870521 0
903 0.3869385031039536 0.5968599115553299 0
904 0.3689428406283126 0.6518153549064856 0
905 -0.04238616922275033 0.9438443929354698 0
906 -0.05131597348664169 0.9658179796786508 0
907 -2.382274640590206 0.2086187678789864 0
908 -0.6212039684585031 0.4644431813185613 0
909 -0.5808607552826391 0.3699976442995125 0
910 0.01436942761186459 0.7620915317434553 0
911 0.04635694738370794 0.7746632754268595 0
912 -0.1456976367023655 0.8864086818874946 0
913 -0.1472228948072411 0.8649283230470517 0
914 -0.623622268100898 0.3193849280059952 0
915 -0.7013477171019954 0.2787522606502146 0
916 -0.7869708170380671 0.2449389412626677 0
917 -0.7500485183896881 0.3595009300949459 0
918 -1.591081099416756 0.9126708066790501 0
919 -1.49324692016582 0.9126708066790501 0
920 0.4347189304503382 0.09130415765395536 0
921 -0.09734877395611495 0.9714785720860156 0
922 -0.1166003562074014 0.9809732032004008 0
923 -0.1161149509131486 0.9524517752864163 0
924 0.4042101842282514 0.728181259951608 0
925 0.458446257709651 0.7294087710449065 0
926 0.4432649503037408 0.7868944052295301 0
927 0.5413802320420211 0.2486851536943407 0
928 -0.1945845728731105 0.9467855134975272 0
929 -0.2192591169688281 0.9305166767316927 0
930 1.010558276859419 0.9158440918064116 0
931 0.0009756058250024495 0.9715269505819482 0
932 -0.01737752742532242 0.9819309032182131 0
933 -0.01640192160031997 0.9534578538001611 0
934 -0.7028796844202254 0.9196262310406496 0
935 -0.6645346202362805 0.8695043727695209 0
936 -0.626521520405269 0.9498781417288712 0
937 -0.7942704203650701 0.9196262310406496 0
938 0.2130400334894528 0.9773754739877505 0
939 -0.2048330910167617 0.476251240986349 0
940 -0.2095947769295028 0.4036469718114685 0
941 -0.7986258197923319 0.4220753970079301 0
942 -0.849527297497943 0.5207187222663461 0
943 -0.886573096031371 0.4243309359658149 0
944 -0.3013889043084562 0.3752556090345603 0
945 -0.3848145775777397 0.3829340861455822 0
946 0.0541800768148297 0.8814980926549003 0
947 2.139256369618251 0.08611055356402245 0
948 2.039256369618134 0.08611055356402245 0
949 -0.2328285092975228 0.9792042984672882 0
950 -0.2056897246401334 0.9792042984672882 0
951 2.739808843404645 0.08558427284850151 0
952 2.639808843404492 0.08558427284850151 0
953 -0.2447915997584015 0.3213640527415841 0
954 -0.2585044258632828 0.2336594068247944 0
955 -0.1667102984843294 0.2620507696017025 0
956 0.8918755319150222 0.7882585786510561 0
957 0.7933942090393196 0.811632732145211 0
958 3.339385866932656 0.08440254216965738 0
959 3.239385866932504 0.08440254216965738 0
960 -0.9190388358005285 0.3480767067845337 0
961 -0.9699403135061395 0.4467200320429497 0
962 0.5321264660828975 0.7350811297778326 0
963 -0.332080374770531 0.9708178857219023 0
964 -0.3130670496188965 0.940179272485264 0
965 -0.1271980463773069 0.8002563953594579 0
966 -0.1314496664984604 0.7753429648375058 0
967 -0.4121512900407638 0.7944424182515084 0
968 -0.3785376887823163 0.8466242315071097 0
969 -0.427260697946466 0.8354892076624463 0
970 0.3077976857069459 0.4634894229473743 0
971 0.3477734211392333 0.3980924344293687 0
972 3.947733000805103 0.08835285179128466 0
973 0.2284310461967451 0.834338445956512 0
974 0.2416686500555564 0.8671235060059506 0
975 -1.837093696572681 0.08329220431689244 0
976 -1.937093696572665 0.08329220431689244 0
977 -1.225283716715337 0.7881511043747944 0
978 -1.27269568377075 0.7239221703219192 0
979 -1.18856256128568 0.690847720912232 0
980 0.003951986099092784 0.6925470628456686 0
981 -0.1796195998840689 0.5282241545563842 0
982 -0.2409785903468648 0.5095114416744799 0
983 0.2062778934007737 0.2917335288026202 0
984 0.1362496324797038 0.2434716333380139 0
985 0.2178136470540213 0.2063903177603034 0
986 4.359758635258156 0.9441479508670245 0
987 4.397235286330484 0.8562796933633627 0
988 0.6649389468527958 0.5525985691349967 0
989 0.6552964405440291 0.6451847055809463 0
990 -0.3305930766885621 0.7087477017948615 0
991 -0.345972132932876 0.6501288852579352 0
992 0.05998235416020059 0.8256946841938867 0
993 0.04441860418338829 0.8424616334821994 0
994 -0.4833112196748625 0.7282430457391496 0
995 -0.4202434044958823 0.08032792600068377 0
996 -0.5336996015214021 0.8938960602248769 0
997 -0.5904573390525532 0.8403477967442281 0
998 -1.430628773775207 0.8232835835712908 0
999 -1.372034985591019 0.9106127768922407 0
1000 3.551057875902032 0.2574577795711279 0
1001 4.205427259155691 0.1063112404490487 0
1002 4.139566498683051 0.1775971503451052 0
1003 4.134139239526144 0.07128590989605652 0
1004 0.01818302756289009 0.9813983307156162 0
1005 -0.08285553568650317 0.9838870764604377 0
1006 -2.401654743996995 0.8567413780704285 0
1007 -2.364132053849359 0.9442080901827075 0
1008 0.1929118678333012 0.366384746465702 0
1009 0.1971956816496112 0.4357143671652139 0
1010 -0.2484441686637092 0.9485656852306499 0
1011 2.863126245104588 0.08628809283951924 0
1012 2.802935088512576 0.1718723656880208 0
1013 3.449307656016359 0.08326325097051519 0
1014 3.388693522951446 0.1676657931401726 0
1015 -0.1137939773265936 0.8254884723429901 0
1016 -0.08923658872063253 0.8178058386676605 0
1017 2.413887643892331 0.2080210494247068 0
1018 2.364229362757108 0.2642136469500748 0
1019 0.002547254569989692 0.5127614432845606 0
1020 -0.03296897440378026 0.5684778371310051 0
1021 -0.03865313299788256 0.5056999794795692 0
1022 -0.2623382280181954 0.7790872585419393 0
1023 -0.2948770147558998 0.7376960178141541 0
1024 -0.6668155030675098 0.8100958860560066 0
1025 -0.7125282742356682 0.7515541708142046 0
1026 -1.363004341022433 0.7347895394041039 0
1027 -1.326283185592776 0.6374861559415415 0
1028 -2.206438146097364 0.1083439193368828 0
1029 -2.131705638515593 0.07264914255864842 0
1030 -2.138143784607025 0.1809930618955312 0
1031 0.5996797620906091 0.405815031210854 0
1032 0.5238797943106752 0.3534961061942174 0
1033 1.3603857064787 0.8290468943034606 0
1034 1.270469901766852 0.8686339253182622 0
1035 1.810566994636123 0.1221071726286563 0
1036 1.889183079887468 0.1761637575305074 0
1037 4.582390903173154 0.5513649509918543 0
1038 4.546502938503226 0.638074768131313 0
1039 4.486850881972487 0.5479705489552279 0
1040 2.747669597963253 0.2566432587133263 0
1041 2.870986999663196 0.257347078704344 0
1042 -0.9145074539277857 0.7534299851320992 0
1043 -0.9416865064694602 0.6607544837025146 0
1044 0.2238926930663502 0.1330550720612285 0
1045 0.2939209539874201 0.1813169675258348 0
1046 4.398497501199754 0.7797035923074491 0
1047 4.311976472017871 0.8117198006781354 0
1048 -1.484216275597234 0.7368475691909132 0
1049 -1.274200806340564 0.9106127768922407 0
1050 3.345591137126068 0.2536371330777803 0
1051 3.45551292620977 0.2524978418786381 0
1052 -0.1431107785130323 0.5546618972290814 0
1053 -0.1088217312628092 0.5281901635971336 0
1054 -0.1084584092218756 0.5878881069579616 0
1055 0.06854807045752206 0.7801149708845669 0
1056 0.09076675653529304 0.7884383692373669 0
1057 0.07622202973694379 0.806051847932874 0
1058 -2.491821254882121 0.5507079985896642 0
1059 3.013126245104814 0.207260684082226 0
1060 2.96212322398386 0.2622602802381776 0
1061 4.72358493439023 0.5693207183424015 0
1062 4.828018512671052 0.5718243888206657 0
1063 4.746476537984715 0.6439728406462037 0
1064 -0.04183607223791526 0.9819309032182131 0
1065 -0.7691350078766612 0.08209513590896822 0
1066 1.430601644386124 0.5770758289093205 0
1067 1.377126679202749 0.6398891746095847 0
1068 1.322724555654712 0.5674088965282235 0
1069 0.3157496351966192 0.7489251678157518 0
1070 0.3601296965254274 0.7502224891688517 0
1071 -0.04968419179143171 0.8353254987675102 0
1072 4.56289963760813 0.732866327580308 0
1073 4.649426743575457 0.7502036953105415 0
1074 4.570283421479695 0.84160085272291 0
1075 -2.587206261521356 0.5541398812401421 0
1076 -2.552718769170954 0.6405208561719229 0
1077 -2.403129701653704 0.7802845513285317 0
1078 -2.316744140862497 0.8119593536235181 0
1079 4.716115790357348 0.715911633262541 0
1080 4.723499574228912 0.824646158405143 0
1081 -1.678925845386428 0.944624835266161 0
1082 -1.63968545431968 0.8572956419452111 0
1083 4.467359616407464 0.7294719255436815 0
1084 -2.73071982933929 0.5729093948668152 0
1085 -2.749894942391797 0.6485147523831789 0
1086 -2.832510995920899 0.5774714084275936 0
1087 0.186310985827764 0.7961824399870174 0
1088 0.1614199436162332 0.7900748884814652 0
1089 3.967791990355257 0.909160119631896 0
1090 2.786439760610287 0.9109999843468587 0
1091 4.076419583609558 0.9122075833392165 0
1092 4.174952414714939 0.9122075833392165 0
1093 3.376651076563067 0.9142721876362528 0
1094 0.08220104023797158 0.8340180825466865 0
1095 -0.09297136594189918 0.9253042436119773 0
1096 -0.06954832340839605 0.9157391612432184 0
1097 2.195184990251635 0.9109185636834884 0
1098 3.470642392727058 0.9093947316963398 0
1099 1.492426900980809 0.9152945522823215 0
1100 1.59095973208619 0.9152945522823215 0
1101 1.782970321414247 0.7366605662452665 0
1102 -1.960709269678303 0.9133789017577487 0
1103 -1.862875090427125 0.9133789017577487 0
1104 2.150249965856243 0.257215582550283 0
1105 2.203144013514609 0.1727219980917561 0
1106 2.274881240130095 0.2577164735139942 0
1107 2.263887643892104 0.08661144452773369 0
1108 4.895094310505401 0.7951770481783079 0
1109 4.82054936863817 0.7184153037408052 0
1110 4.925455058132769 0.7232382555619706 0
1111 -2.178806045227986 0.9128343191728722 0
1112 -2.080971865976808 0.9128343191728722 0
1113 -1.689825671732066 0.1718311071996657 0
1114 -1.613873051335669 0.1174101379293444 0
1115 1.989256369618276 0.1370842968655608 0
1116 1.949999999995653 0.0509737433015383 0
1117 0.1096991096359106 0.8350974852688513 0
1118 -2.568072040299195 0.7345096572989214 0
1119 -2.573541332236811 0.8424796704931254 0
1120 -2.653573067747804 0.7519227520166047 0
1121 3.971613089418389 0.5817534068889472 0
1122 4.022373081973846 0.5018578407048553 0
1123 4.065637267331035 0.5831169768463373 0
1124 3.981710389703567 0.4120125926136818 0
1125 4.075734567616214 0.413376162571072 0
1126 3.368272295724655 0.4161774786014302 0
1127 3.461117165280926 0.4218381182458248 0
1128 3.416978920621189 0.4995464150310092 0
1129 3.373896290531024 0.5785646341072884 0
1130 3.466741160087296 0.5842252737516831 0
1131 2.783768701526142 0.5851160797478159 0
1132 2.824683988092771 0.5039280704393156 0
1133 2.876004028804247 0.5833324919366065 0
1134 2.77408508496427 0.4239148149900872 0
1135 2.866320412242375 0.4221312271788779 0
1136 2.18159107123338 0.4236688746852691 0
1137 2.273467664432527 0.4243161996377269 0
1138 2.233071543194178 0.5057750163504751 0
1139 2.192432500339518 0.5847060439015215 0
1140 2.284309093538665 0.5853533688539794 0
1141 0.03069162047941058 0.8874277392279259 0
1142 0.04247290832580924 0.859590565380725 0
1143 -2.905363575730463 0.8042222234244292 0
1144 -2.925843054486703 0.7265383829719785 0
1145 -2.831206630217165 0.7307606063964078 0
1146 -2.729415463635557 0.7261985928356296 0
1147 -2.734884755573173 0.8341686060298337 0
1148 1.183574361196564 0.2437364968071789 0
1149 -0.7994158848313038 0.7578479123638591 0
1150 -0.771051374815735 0.6701496210967645 0
1151 4.02953988501863 0.8213677029711125 0
1152 3.42381876697623 0.8236669193325927 0
1153 0.1826894891931682 0.6520337266115337 0
1154 -0.1410589010199925 0.9809732032004008 0
1155 -0.5543931576998375 0.9498781417288712 0
1156 -1.174124571774921 0.5543680208238358 0
1157 -1.068854321368149 0.5635914297734625 0
1158 -1.130704277934321 0.6358421958089835 0
1159 -0.373894469133479 0.5884604069939752 0
1160 -0.4327147375295931 0.5299303774407396 0
1161 -0.5051842827522258 0.5612686928548103 0
1162 -0.4690670935929364 0.6300719848132226 0
1163 -2.472687033659961 0.7310777746484436 0
1164 1.97843944950995 0.2113005677929915 0
1165 -1.056113258337234 0.8637473882454012 0
1166 -1.141150594230267 0.826077411919065 0
1167 -2.020022928166894 0.826213220930621 0
1168 3.967894783269953 0.7406663911471105 0
1169 4.076522376524254 0.7437138548544311 0
1170 -1.978384121793433 0.5840898732033513 0
1171 -2.071780258537146 0.5839564843932452 0
1172 -2.028223975710361 0.5036355720388721 0
1173 -1.986954141597288 0.4137144650168169 0
1174 -2.080350278341001 0.4135810762067109 0
1175 3.376742990404685 0.745893934050234 0
1176 3.470734306568676 0.741016478110321 0
1177 2.413887643892331 0.1370205211885901 0
1178 2.499999999996201 0.1718186815578296 0
1179 -1.275979253477297 0.5504068431853173 0
1180 4.034139239525992 0.07128590989605652 0
1181 2.243236983038288 0.8195827321887277 0
1182 2.289132721835974 0.9086641685052391 0
1183 2.834574881697676 0.8246813896285106 0
1184 2.880412836768997 0.9136814052816518 0
1185 3.013126245104814 0.1364414693495019 0
1186 3.09999999999711 0.1711259677526894 0
1187 -1.639288538385709 0.7830838838216825 0
1188 -1.727133284355381 0.8150379124087934 0
1189 2.974890776663585 0.7432383412565567 0
1190 1.614006612563791 0.5876308144808493 0
1191 1.660994522981371 0.5084609595841428 0
1192 1.706248102731111 0.5901241138292952 0
1193 1.638370176096409 0.8273538683211423 0
1194 1.697294186427253 0.9120593160388208 0
1195 4.122963196829266 0.2680766976889979 0
1196 4.125458437459129 0.348621737011714 0
1197 1.425744965895336 0.7042022313540979 0
1198 2.366396280057622 0.7364651049484163 0
1199 -0.1753987650408677 0.8597008328095432 0
1200 -0.1522004862158194 0.8410090816168114 0
1201 -2.125978368208362 0.2701739039292106 0
1202 -2.129333147777317 0.3492859940614581 0
1203 -1.960850368244303 0.7455842945366109 0
1204 -2.081112964542809 0.7450397119517344 0
1205 2.196479651068977 0.7430607618860015 0
1206 2.290427382653315 0.740806366707752 0
1207 2.787845273888292 0.7432602349694121 0
1208 2.881818350047002 0.7459416559042051 0
1209 4.271657175602064 0.06793124449910611 0
1210 4.27708443475897 0.1742424849481548 0
1211 -2.031705638516305 0.07264914255864842 0
1212 1.595647957034439 0.7499415366453224 0
1213 1.701982411375502 0.7467063004018217 0
1214 -2.925843054486703 0.6265383829726721 0
1215 4.925455058132769 0.6232382555617073 0
1216 -2.278582987525577 0.176219262133946 0
1217 -2.272144841434145 0.0678753427970632 0
1218 2.633780331122675 0.5139923286983763 0
1219 2.704261883842771 0.5810764709155308 0
1220 3.28084156837712 0.7427254035146837 0
1221 0.2289005425189497 0.6663136608375537 0
1222 3.890592146766811 0.7366571103510327 0
1223 0.4750763188897001 0.8404206929920843 0
1224 0.5527560161411487 0.8231275512486564 0
1225 -0.4044637108404586 0.6486337508189508 0
1226 2.121565819411906 0.3532685732160442 0
1227 2.049828592796421 0.2682740977938061 0
1228 4.79656147940002 0.8951770481785712 0
1229 4.72987243261813 0.9294691102265717 0
1230 -0.1279527272397723 0.9072375493552478 0
1231 -0.1526762641696962 0.9044489417075368 0
1232 -0.1541947048369004 0.9302201196178839 0
1233 -0.07972538191590217 0.8911378097127522 0
1234 2.96312624510474 0.08628809283951924 0
1235 2.045250827964621 0.5184890197594899 0
1236 2.11356254840429 0.5816812206982006 0
1237 2.589808843404417 0.2069938777454746 0
1238 2.589808843404417 0.135993349509358 0
1239 2.549999999996277 0.05040907666085646 0
1240 2.712596332972821 0.3492741591806079 0
1241 2.6445444218222 0.2637994461642846 0
1242 -0.9175145014860338 0.2676529208941539 0
1243 -0.9379118560484838 0.1706582405814001 0
1244 -0.85606897288821 0.2286929303946452 0
1245 3.507955490076654 0.3434291195087357 0
1246 4.051675177199719 0.2330513671360058 0
1247 -1.813248350144899 0.7837919789003811 0
1248 -1.879143880988393 0.7396249118735445 0
1249 0.04281623533929008 0.9813983307156162 0
1250 -0.1050267314971889 0.8984243162935645 0
1251 -0.02301283827205153 0.6902138029880491 0
1252 -0.02914077194795663 0.6497498612865615 0
1253 -2.807529396479285 0.9042222234244293 0
1254 -2.731687000591531 0.9299463826054044 0
1255 0.1052535427239227 0.9825717058084449 0
1256 0.1298867505003227 0.9825717058084449 0
1257 -2.051245860626591 0.2344791271509762 0
1258 4.225703082580036 0.7797794331503274 0
1259 4.224440867710765 0.856355534206241 0
1260 -1.257669971135323 0.07303916073973191 0
1261 -1.357669971136062 0.07303916073973191 0
1262 2.311335315098741 0.3487072314086016 0
1263 4.926249336085263 0.3682728947876258 0
1264 4.926249336085263 0.2682728947879172 0
1265 -1.772124276943641 0.4506543737161578 0
1266 -1.727801853825785 0.3753623862694264 0
1267 -1.685104150040854 0.4661426258986677 0
1268 -2.914867003671903 0.2720106778269806 0
1269 -2.914867003671903 0.3720106778273967 0
1270 2.363887643892256 0.08661144452773369 0
1271 -1.626637965627429 0.5216655138633864 0
1272 -1.55726732316198 0.5777849947654479 0
1273 3.308556035166184 0.3437147593261376 0
1274 3.241736631907859 0.258882710587672 0
1275 1.641001022921255 0.1428992489190211 0
1276 0.1491783510570148 0.7699275916664734 0
1277 0.1374026410953222 0.7989690553965179 0
1278 3.189385866932427 0.2053751334123641 0
1279 3.189385866932427 0.13455591867964 0
1280 3.149999999997187 0.05015337650998265 0
1281 -0.1999717808556528 0.8128786236708427 0
1282 -0.1851999796727394 0.7928740369248188 0
1283 -0.1656045552665326 0.8157770046332792 0
1284 3.547756435726128 0.7374330182009123 0
1285 4.159074859725367 0.7369006123151907 0
1286 -2.229252311492303 0.7805855826136827 0
1287 -2.162502156433796 0.737892483002998 0
1288 -1.164887154641451 0.06553328706470332 0
1289 -1.222557125771598 0.1385724478044352 0
1290 0.325087269470368 0.9391422711530724 0
1291 0.34318614517422 0.9707423354115414 0
1292 -2.227777353835594 0.8570424093555796 0
1293 -1.81364526607887 0.8580037370239098 0
1294 -0.6697812698611469 0.5270176482315455 0
1295 -0.7130027198562601 0.455888716395477 0
1296 1.614174983923023 0.4176536375603413 0
1297 1.706416474090342 0.4201469369087871 0
1298 4.65267889019273 0.560303535233574 0
1299 4.734220864879067 0.4881550834080359 0
1300 0.3611394467067058 0.323441216766287 0
1301 0.2744758824076187 0.3293034308879915 0
1302 1.58043402828136 0.0717658195919031 0
1303 -1.750000000007388 0.05023591035635827 0
1304 -1.787093696572682 0.1335281146732507 0
1305 -1.776919368297359 0.2048874011601999 0
1306 -0.02765821151748739 0.7223342949184193 0
1307 -2.744965348426374 0.479814858672492 0
1308 -2.662349294897272 0.5508582026280774 0
1309 1.740248102352276 0.6592482345694465 0
1310 4.744238738189982 0.4069108496065625 0
1311 4.673332693992483 0.3978936664977351 0
1312 -0.199072027127177 0.8676675494131439 0
1313 -0.2040496185357553 0.8437483079829037 0
1314 -0.2252650118900988 0.8771698905576567 0
1315 -2.748353683402271 0.2516463165982885 0
1316 -2.752558902266608 0.1539756580937575 0
1317 -2.686685825929136 0.2198487344316236 0
1318 4.767924619736963 0.3265976111362691 0
1319 4.828812790623546 0.41685902804657 0
1320 -1.57126299828891 0.7395075942538112 0
1321 -1.503638565536136 0.6510135500866241 0
1322 3.823294522202546 0.5134214755907752 0
1323 3.869979511752403 0.4230899631023788 0
1324 -0.1387325040686115 0.7489501576479335 0
1325 -0.1581155916537703 0.7693796106976831 0
1326 0.2387689211267824 0.7472399559406202 0
1327 0.2032244903397102 0.7724986253596722 0
1328 -0.2519921948530142 0.9206737650277661 0
1329 2.906857733434538 0.3470311732634831 0
1330 -0.8097595033351372 0.59745327297744 0
1331 -0.7228718927395017 0.5911595314277857 0
1332 1.949755303065613 0.3073535584587528 0
1333 0.7545562586558012 0.0751540345714993 0
1334 2.081169698173557 0.4347273899287923 0
1335 4.593026833661992 0.4701993160574888 0
1336 4.749052304874442 0.25094769512536 0
1337 4.687151873563058 0.2193797444101444 0
1338 4.752853611134103 0.1536780068392427 0
1339 -1.225283716715337 0.8591518613287521 0
1340 -2.8215349451061 0.4229437032821794 0
1341 0.09293693883572254 0.9584058003239225 0
1342 2.670959908823217 0.4310710024410456 0
1343 -1.956633918682951 0.2451221889092202 0
1344 -1.844504686933274 0.2632292713603507 0
1345 -1.92695121247825 0.341767051635786 0
1346 4.631339601512748 0.9294691102265717 0
1347 3.264417790506447 0.4214230561113219 0
1348 2.117609699133749 0.7400359386826805 0
1349 -1.42154302246471 0.1402133883127181 0
1350 -2.615205780853594 0.135976844161934 0
1351 0.1041269228959876 0.7706616253852929 0
1352 0.1118008821754093 0.7965985024336 0
1353 1.760566994636265 0.07113342932711801 0
1354 1.660566994636557 0.07113342932711801 0
1355 2.708338456204921 0.739220626137127 0
1356 -2.633852821340353 0.9299463826054044 0
1357 -1.832127206062679 0.5226017870971886 0
1358 -1.87482490984761 0.4318215474679473 0
1359 0.7204338891430069 0.9392182453005666 0
1360 -2.601451780608439 0.4610453450458188 0
1361 3.224299334932662 0.4960238627769818 0
1362 1.449260942805929 0.7947187301410785 0
1363 1.443160485428118 0.864917268727025 0
1364 -0.3021403025041213 0.9102539181504878 0
1365 -0.3340301055751226 0.9117104171090286 0
1366 0.1186855249784996 0.9466222196540903 0
1367 4.261225804152774 0.9441479508670245 0
1368 4.216813882976684 0.5121794402143287 0
1369 4.148189750532149 0.5763037343070969 0
1370 1.40355166465358 0.9496227164447035 0
1371 3.327757107969566 0.660074962292412 0
1372 3.937574638272435 0.6590032622343511 0
1373 3.614031965260676 0.5157778675547445 0
1374 3.543763289244747 0.5806418138422744 0
1375 3.965268938478831 0.2501183090312339 0
1376 3.923340997394771 0.3346082849685955 0
1377 3.853538060527667 0.2611956795199309 0
1378 4.615054880069152 0.135976061960013 0
1379 3.020691967085641 0.5001532163977277 0
1380 2.957456636563038 0.4270444287127115 0
1381 -2.821980383541775 0.2648972979567757 0
1382 2.430030068912006 0.5143476702245802 0
1383 2.36281578705954 0.4308133730738075 0
1384 3.894310452915247 0.5777441260928692 0
1385 4.833626357308006 0.2608958735653675 0
1386 0.7965495555752724 0.1364768621234292 0
1387 0.877950616816157 0.2126017044939345 0
1388 3.27799486850346 0.5753961035717381 0
1389 2.928161168854202 0.6618171865974583 0
1390 -1.463873051335301 0.06717422757298618 0
1391 -1.56387305133567 0.06717422757298618 0
1392 -1.776760024637606 0.944624835266161 0
1393 -2.679537710524578 0.3876415296849543 0
1394 -0.06872630452994645 0.808139799069797 0
1395 -2.266297874598181 0.9442080901827075 0
1396 2.319638948088311 0.6599431346456901 0
1397 0.03237553589010209 0.4895541951700204 0
1398 0.03805969448420439 0.5523320528214563 0
1399 -1.940233917364308 0.6584514028946579 0
1400 1.508519744844754 0.7400726057776623 0
1401 -2.22157445720307 0.5124998437580842 0
1402 -2.153169450428134 0.5768092554445089 0
1403 0.3786398844380517 0.2186302642664102 0
1404 0.4519374231696663 0.2874192678077875 0
1405 -1.747236662092658 0.3015322638867657 0
1406 -2.756107307204303 0.3307703742946417 0
1407 -2.753164410664081 0.4008925110434415 0
1408 0.1430876321008379 0.889061276195791 0
1409 0.1228795069598006 0.8733386095150588 0
1410 -0.250465909809459 0.8089607299607928 0
1411 -0.2932369325657949 0.7980723325403496 0
1412 -1.896677634537523 0.5781304905402846 0
1413 -0.9093619894615519 0.9152083038088898 0
1414 -0.8559843533477189 0.8348345348495394 0
1415 -1.190067683855494 0.9485390844365114 0
1416 -0.8977067795741763 0.5997088119353249 0
1417 -1.007196168712007 0.9152083038088898 0
1418 1.985225576143148 0.448088718290265 0
1419 -0.1048131798562703 0.6267164961238669 0
1420 -0.1335200445875132 0.653018716377278 0
1421 -0.9996786923250107 0.1048091155404544 0
1422 -1.064565846962016 0.1703424026051578 0
1423 -1.064887154640719 0.06553328706470332 0
1424 3.049999999997036 0.05015337650998265 0
1425 1.572131980123846 0.6594250378583417 0
1426 0.1250991530386245 0.9094792612346898 0
1427 3.981872240332615 0.1596387616873412 0
1428 -2.103329596511205 0.6572635566089879 0
1429 1.802783032598957 0.4541622633518985 0
1430 3.500680659154582 0.6596600329185538 0
1431 4.097429757976691 0.6561993004911888 0
1432 2.449999999996125 0.05040907666085646 0
1433 -0.1158973616844825 0.9341174766736606 0
1434 -0.1120053589645196 0.9164645761136065 0
1435 -1.968799335081614 0.1559413468755408 0
1436 -0.3583752275741829 0.8847280418461501 0
1437 -0.4169409096245084 0.3198268645406042 0
1438 0.1310663039599338 0.9637082198003106 0
1439 0.2502538017680546 0.8910432643586101 0
1440 0.2804874940183113 0.9109924124393955 0
1441 2.360277990942972 0.5810121070946436 0
1442 0.6615187715365303 0.4704449242159487 0
1443 2.969076455420831 0.580629177288958 0
1444 1.472476276826069 0.5052816055318282 0
1445 1.526878400374106 0.5777618836131895 0
1446 1.5184188097581 0.4483821893322255 0
1447 -2.170602981890391 0.4392071010835134 0
1448 0.7404207973911381 0.5261754230100081 0
1449 1.12267065510878 0.9190112088735587 0
1450 1.221203486214162 0.9190112088735587 0
1451 3.556662114973188 0.4267980559383145 0
1452 -0.02932374503817495 0.6073062262969104 0
1453 4.840474403052442 0.8399021010461214 0
1454 4.84684726144166 0.9447250528675502 0
1455 -0.938233163727187 0.06584912504094569 0
1456 1.270197370646367 0.5075714830989362 0
1457 1.226581406326057 0.4342121193177505 0
1458 1.332583556517776 0.4312361870467737 0
1459 1.143907736858843 0.4090864723659398 0
1460 1.206293922730251 0.3327511763137773 0
1461 4.166121129729408 0.4384669851028875 0
1462 0.8419932969184676 0.06132282755192994 0
1463 0.1738926930663926 0.07906421114784853 0
1464 4.945380092547041 0.8447250528672869 0
1465 0.244452492058547 0.4617992938518729 0
1466 1.849999999995936 0.0509737433015383 0
1467 -1.156928850313898 0.217362549622722 0
1468 0.2499999999997914 0.05399086091337996 0
1469 -0.3240424296405842 0.2092838115474336 0
1470 -0.2459611283665121 0.149970528407552 0
1471 -0.1940168929402745 0.9654510952302884 0
1472 -0.1839955268008848 0.9862467967630002 0
1473 -0.8073681716005172 0.1479442609499139 0
1474 2.164800098748776 0.6612595732017048 0
1475 -2.854048169868643 0.9510555558561073 0
1476 -2.857245924850284 0.8552777792805366 0
1477 0.1075027572180181 0.8926810372527446 0
1478 0.1240424747346277 0.8167457992485918 0
1479 -1.65000000000739 0.05023591035635827 0
1480 2.755581924554248 0.6604808924128218 0
1481 1.787236012769856 0.58007837967274 0
1482 1.851271359541451 0.5214023035267756 0
1483 0.3753110039313375 0.6927368549842281 0
1484 -0.005332541515428474 0.7486262584946521 0
1485 -1.582315542509573 0.4463735264166551 0
1486 -0.1728903750338618 0.9538280117932392 0
1487 0.9598906969291137 0.7244877663761651 0
1488 1.039748059778603 0.7612119497140879 0
1489 -2.951882349119821 0.8510555558561073 0
1490 -0.4187078369223847 0.746804811744878 0
1491 -0.3699848277582349 0.7579398355895414 0
1492 1.266248030663778 0.2688621437589896 0
1493 1.3562884753627 0.3019642728226987 0
1494 0.2722766346583977 0.7467941686716744 0
1495 0.2667610406331098 0.7835180386989777 0
1496 1.074542176183453 0.8348553006799703 0
1497 0.3847189304503806 0.1452950185673353 0
1498 0.3499999999997067 0.05399086091337996 0
1499 0.2163398225895484 0.8076476405952688 0
1500 0.136388505006498 0.7093402342202868 0
1501 0.0967735556072665 0.7192031105097081 0
1502 -0.4411447573923335 0.6917404630771826 0
1503 1.900818378991718 0.4646103079460855 0
1504 1.936737249200654 0.3808486781153879 0
1505 0.6867390803399215 0.8682848383878088 0
1506 1.216722405462993 0.5703848287992003 0
1507 0.1470551275452072 0.748878837865359 0
1508 -0.8382331637268041 0.06584912504094569 0
1509 0.5873814584389057 0.7700867647036604 0
1510 1.305018833548199 0.9496227164447035 0
1511 -1.092233504605039 0.9485390844365114 0
1512 0.3117598477675724 0.9011486010419409 0
1513 -0.3342687658255726 0.786888151608834 0
1514 4.945380092547041 0.9447250528675502 0
1515 -2.951882349119821 0.9510555558561073 0
1516 -0.2755433996133657 0.9099324010680514 0
1517 -0.2463583479184846 0.8918833925690943 0
1518 -0.5400576049299208 0.2960683228230151 0
1519 -0.2557495660722753 0.06279746656509563 0
1520 -0.3557495660726437 0.06279746656509563 0
1521 -0.05839699087391212 0.9838870764604377 0
1522 0.281389352387267 0.6717255849796517 0
1523 0.9419932969181757 0.06132282755192994 0
1524 4.745476589911208 0.06105502806201351 0
1525 4.645476589911055 0.06105502806201351 0
1526 -2.645445522398219 0.06108903796354629 0
1527 -2.745445522397477 0.06108903796354629 0
1528 -0.1595369819882879 0.9862467967630002 0
1529 -0.2236450429419621 0.8208453402744433 0
1530 0.1230378250242963 0.7577730047804117 0
1531 -0.9814543006322659 0.5840199329914206 0
1532 0.2453445507086912 0.8106546313291669 0
1533 -0.3885362680638227 0.2268142709830218 0
1534 -0.3759929705670521 0.1431253925657794 0
1535 1.378526089449807 0.374336770847171 0
1536 1.422142053770118 0.4476961346283567 0
1537 -0.0705241326060472 0.600244762491919 0
1538 0.7191145848391773 0.6803318962381237 0
1539 0.6305700526758029 0.717187533890014 0
1540 -0.4688914505509763 0.25366844555895 0
1541 -0.164167012591049 0.6852044012740626 0
1542 -0.1448455309634245 0.7173321978363787 0
1543 0.287757515690292 0.7126470850573943 0
1544 0.6511996027340539 0.8052339553608379 0
1545 -0.3408253127071935 0.7392505451022036 0
1546 0.06090167418205718 0.7570497967313524 0
1547 -0.137428685032906 0.8210044948707875 0
1548 0.7299276745768186 0.8153856075741622 0
1549 -0.135148943935769 0.9436121077880457 0
1550 0.3248623529254886 0.6738565841237292 0
1551 0.10200369938418 0.7496128715841786 0
1552 -0.1538446141327305 0.9672199999634009 0
1553 -0.2488162166504503 0.8664285265979419 0
1554 -1.024874594472866 0.5025457580062729 0
1555 -0.2545437474895615 0.8398304142728539 0
1556 -0.1544122940655664 0.9485544182306398 0
1557 0.7578547314334519 0.7485818491182401 0
1558 0.9614462029616212 0.1415040537980758 0
1559 0.07786265347895779 0.7320917311145894 0
$EndNodes
$Elements
836
1 15 2 1 1 1
2 15 2 2 2 2
3 15 2 3 3 3
4 15 2 4 4 4
5 15 2 5 5 5
6 15 2 6 6 6
7 8 2 1 1 1 7 21
8 8 2 1 1 7 8 22
9 8 2 1 1 8 9 23
10 8 2 1 1 9 10 24
11 8 2 1 1 10 11 25
12 8 2 1 1 11 12 26
13 8 2 1 1 12 13 27
14 8 2 1 1 13 14 28
15 8 2 1 1 14 15 29
16 8 2 1 1 15 16 30
17 8 2 1 1 16 17 31
18 8 2 1 1 17 18 32
19 8 2 1 1 18 19 33
20 8 2 1 1 19 20 34
21 8 2 1 1 20 2 35
22 8 2 2 2 2 36 60
23 8 2 2 2 36 37 61
24 8 2 2 2 37 38 62
25 8 2 2 2 38 39 63
26 8 2 2 2 39 40 64
27 8 2 2 2 40 41 65
28 8 2 2 2 41 42 66
29 8 2 2 2 42 43 67
30 8 2 2 2 43 44 68
31 8 2 2 2 44 45 69
32 8 2 2 2 45 46 70
33 8 2 2 2 46 47 71
34 8 2 2 2 47 48 72
35 8 2 2 2 48 49 73
36 8 2 2 2 49 50 74
37 8 2 2 2 50 51 75
38 8 2 2 2 51 52 76
39 8 2 2 2 52 53 77
40 8 2 2 2 53 54 78
41 8 2 2 2 54 55 79
42 8 2 2 2 55 56 80
43 8 2 2 2 56 57 81
44 8 2 2 2 57 58 82
45 8 2 2 2 58 59 83
46 8 2 2 2 59 5 84
47 8 2 3 3 5 85 89
48 8 2 3 3 85 86 90
49 8 2 3 3 86 87 91
50 8 2 3 3 87 88 92
51 8 2 3 3 88 6 93
52 8 2 4 4 6 94 124
53 8 2 4 4 94 95 125
54 8 2 4 4 95 96 126
55 8 2 4 4 96 97 127
56 8 2 4 4 97 98 128
57 8 2 4 4 98 99 129
58 8 2 4 4 99 100 130
59 8 2 4 4 100 101 131
60 8 2 4 4 101 102 132
61 8 2 4 4 102 103 133
62 8 2 4 4 103 104 134
63 8 2 4 4 104 105 135
64 8 2 4 4 105 106 136
65 8 2 4 4 106 107 137
66 8 2 4 4 107 108 138
67 8 2 4 4 108 109 139
68 8 2 4 4 109 110 140
69 8 2 4 4 110 111 141
70 8 2 4 4 111 112 142
71 8 2 4 4 112 113 143
72 8 2 4 4 113 114 144
73 8 2 4 4 114 115 145
74 8 2 4 4 115 116 146
75 8 2 4 4 116 117 147
76 8 2 4 4 117 118 148
77 8 2 4 4 118 119 149
78 8 2 4 4 119 120 150
79 8 2 4 4 120 121 151
80 8 2 4 4 121 122 152
81 8 2 4 4 122 123 153
82 8 2 4 4 123 3 154
83 8 2 5 5 3 155 175
84 8 2 5 5 155 156 176
85 8 2 5 5 156 157 177
86 8 2 5 5 157 158 178
87 8 2 5 5 158 159 179
88 8 2 5 5 159 160 180
89 8 2 5 5 160 161 181
90 8 2 5 5 161 162 182
91 8 2 5 5 162 163 183
92 8 2 5 5 163 164 184
93 8 2 5 5 164 165 185
94 8 2 5 5 165 166 186
95 8 2 5 5 166 167 187
96 8 2 5 5 167 168 188
97 8 2 5 5 168 169 189
98 8 2 5 5 169 170 190
99 8 2 5 5 170 171 191
100 8 2 5 5 171 172 192
101 8 2 5 5 172 173 193
102 8 2 5 5 173 174 194
103 8 2 5 5 174 4 195
104 8 2 6 6 4 196 200
105 8 2 6 6 196 197 201
106 8 2 6 6 197 198 202
107 8 2 6 6 198 199 203
108 8 2 6 6 199 1 204
109 9 2 1 1 99 100 280 130 519 520
110 9 2 1 1 53 54 283 78 521 522
111 9 2 1 1 102 103 282 133 523 524
112 9 2 1 1 105 106 284 136 525 526
113 9 2 1 1 108 109 287 139 527 528
114 9 2 1 1 406 208 424 529 530 531
115 9 2 1 1 211 300 382 532 533 534
116 9 2 1 1 254 308 332 535 536 537
117 9 2 1 1 308 211 332 538 539 536
118 9 2 1 1 290 231 401 540 541 542
119 9 2 1 1 304 207 348 543 544 545
120 9 2 1 1 238 291 434 546 547 548
121 9 2 1 1 318 212 485 549 550 551
122 9 2 1 1 2 247 372 552 553 554
123 9 2 1 1 300 264 382 555 556 533
124 9 2 1 1 210 260 395 557 558 559
125 9 2 1 1 255 272 317 560 561 562
126 9 2 1 1 272 215 317 563 564 561
127 9 2 1 1 217 271 316 565 566 567
128 9 2 1 1 271 257 316 568 569 566
129 9 2 1 1 301 227 318 570 571 572
130 9 2 1 1 291 238 390 546 573 574
131 9 2 1 1 256 279 320 575 576 577
132 9 2 1 1 279 214 320 578 579 576
133 9 2 1 1 260 210 309 557 580 581
134 9 2 1 1 214 279 439 578 582 583
135 9 2 1 1 233 300 373 584 585 586
136 9 2 1 1 247 2 397 552 587 588
137 9 2 1 1 291 213 434 589 590 547
138 9 2 1 1 233 380 474 591 592 593
139 9 2 1 1 271 217 460 565 594 595
140 9 2 1 1 161 162 293 182 596 597
141 9 2 1 1 233 373 380 586 598 591
142 9 2 1 1 278 244 392 599 600 601
143 9 2 1 1 209 290 401 602 542 603
144 9 2 1 1 308 225 414 604 605 606
145 9 2 1 1 116 288 319 607 608 609
146 9 2 1 1 215 272 456 563 610 611
147 9 2 1 1 257 271 402 568 612 613
148 9 2 1 1 308 414 490 606 614 615
149 9 2 1 1 256 281 398 616 617 618
150 9 2 1 1 228 330 378 619 620 621
151 9 2 1 1 272 255 403 560 622 623
152 9 2 1 1 53 283 387 522 624 625
153 9 2 1 1 99 280 338 520 626 627
154 9 2 1 1 280 100 345 519 628 629
155 9 2 1 1 294 226 406 630 631 632
156 9 2 1 1 281 256 465 616 633 634
157 9 2 1 1 283 54 336 521 635 636
158 9 2 1 1 102 282 342 524 637 638
159 9 2 1 1 105 284 340 526 639 640
160 9 2 1 1 291 262 445 641 642 643
161 9 2 1 1 213 291 445 589 643 644
162 9 2 1 1 303 120 447 645 646 647
163 9 2 1 1 108 287 344 528 648 649
164 9 2 1 1 337 418 445 650 651 652
165 9 2 1 1 282 103 366 523 653 654
166 9 2 1 1 284 106 363 525 655 656
167 9 2 1 1 116 117 288 147 657 607
168 9 2 1 1 1 7 384 21 658 659
169 9 2 1 1 199 1 384 204 659 660
170 9 2 1 1 287 109 369 527 661 662
171 9 2 1 1 337 261 418 663 664 650
172 9 2 1 1 42 292 389 665 666 667
173 9 2 1 1 5 85 388 89 668 669
174 9 2 1 1 59 5 388 84 669 670
175 9 2 1 1 244 278 487 599 671 672
176 9 2 1 1 301 318 485 572 551 673
177 9 2 1 1 373 266 380 674 675 598
178 9 2 1 1 279 256 421 575 676 677
179 9 2 1 1 303 265 318 678 679 680
180 9 2 1 1 237 304 454 681 682 683
181 9 2 1 1 300 211 373 532 684 585
182 9 2 1 1 446 161 500 685 686 687
183 9 2 1 1 276 217 381 688 689 690
184 9 2 1 1 215 273 385 691 692 693
185 9 2 1 1 288 260 309 694 581 695
186 9 2 1 1 217 276 432 688 696 697
187 9 2 1 1 284 221 428 698 699 700
188 9 2 1 1 275 216 425 701 702 703
189 9 2 1 1 330 247 378 704 705 620
190 9 2 1 1 273 215 435 691 706 707
191 9 2 1 1 408 237 454 708 683 709
192 9 2 1 1 219 280 431 710 711 712
193 9 2 1 1 280 219 422 710 713 714
194 9 2 1 1 287 222 427 715 716 717
195 9 2 1 1 222 287 429 715 718 719
196 9 2 1 1 221 284 442 698 720 721
197 9 2 1 1 216 275 426 701 722 723
198 9 2 1 1 393 233 474 724 593 725
199 9 2 1 1 226 391 406 726 727 631
200 9 2 1 1 57 402 475 728 729 730
201 9 2 1 1 403 9 481 731 732 733
202 9 2 1 1 289 411 448 734 735 736
203 9 2 1 1 228 304 498 737 738 739
204 9 2 1 1 294 406 424 632 531 740
205 9 2 1 1 115 116 319 146 609 741
206 9 2 1 1 262 291 419 641 742 743
207 9 2 1 1 288 117 444 657 744 745
208 9 2 1 1 413 220 461 746 747 748
209 9 2 1 1 206 375 486 749 750 751
210 9 2 1 1 260 288 444 694 745 752
211 9 2 1 1 227 303 318 753 680 571
212 9 2 1 1 411 261 448 754 755 735
213 9 2 1 1 244 292 451 756 757 758
214 9 2 1 1 232 305 332 759 760 761
215 9 2 1 1 305 254 332 762 537 760
216 9 2 1 1 118 119 299 149 763 764
217 9 2 1 1 417 219 457 765 766 767
218 9 2 1 1 292 42 451 665 768 757
219 9 2 1 1 292 244 491 756 769 770
220 9 2 1 1 279 326 439 771 772 582
221 9 2 1 1 227 299 396 773 774 775
222 9 2 1 1 277 413 461 776 748 777
223 9 2 1 1 120 121 447 151 778 646
224 9 2 1 1 295 18 433 779 780 781
225 9 2 1 1 395 260 496 558 782 783
226 9 2 1 1 220 420 443 784 785 786
227 9 2 1 1 310 232 371 787 788 789
228 9 2 1 1 399 221 467 790 791 792
229 9 2 1 1 20 2 372 35 554 793
230 9 2 1 1 304 228 454 737 794 682
231 9 2 1 1 256 320 355 577 795 796
232 9 2 1 1 320 236 355 797 798 795
233 9 2 1 1 41 389 419 799 800 801
234 9 2 1 1 330 205 356 802 803 804
235 9 2 1 1 18 295 405 779 805 806
236 9 2 1 1 8 9 403 23 731 807
237 9 2 1 1 377 213 418 808 809 810
238 9 2 1 1 57 58 402 82 811 728
239 9 2 1 1 265 310 371 812 789 813
240 9 2 1 1 207 304 357 543 814 815
241 9 2 1 1 420 282 443 816 817 785
242 9 2 1 1 283 417 457 818 767 819
243 9 2 1 1 269 377 418 820 810 821
244 9 2 1 1 247 330 356 704 804 822
245 9 2 1 1 259 304 348 823 545 824
246 9 2 1 1 327 209 483 825 826 827
247 9 2 1 1 353 38 390 828 829 830
248 9 2 1 1 265 303 447 678 647 831
249 9 2 1 1 274 399 467 832 792 833
250 9 2 1 1 159 160 359 180 834 835
251 9 2 1 1 332 211 480 539 836 837
252 9 2 1 1 161 293 500 597 838 686
253 9 2 1 1 379 114 409 839 840 841
254 9 2 1 1 211 382 480 534 842 836
255 9 2 1 1 321 226 327 843 844 845
256 9 2 1 1 285 218 286 846 847 848
257 9 2 1 1 303 227 396 753 775 849
258 9 2 1 1 302 254 471 850 851 852
259 9 2 1 1 391 268 406 853 854 727
260 9 2 1 1 285 286 470 848 855 856
261 9 2 1 1 86 87 313 91 857 858
262 9 2 1 1 299 119 396 763 859 774
263 9 2 1 1 197 198 314 202 860 861
264 9 2 1 1 122 123 310 153 862 863
265 9 2 1 1 296 229 367 864 865 866
266 9 2 1 1 312 271 460 867 595 868
267 9 2 1 1 206 408 454 869 709 870
268 9 2 1 1 293 231 407 871 872 873
269 9 2 1 1 95 96 322 126 874 875
270 9 2 1 1 306 212 371 876 877 878
271 9 2 1 1 172 173 324 193 879 880
272 9 2 1 1 224 297 486 881 882 883
273 9 2 1 1 207 415 492 884 885 886
274 9 2 1 1 375 298 486 887 888 750
275 9 2 1 1 305 232 466 759 889 890
276 9 2 1 1 404 270 453 891 892 893
277 9 2 1 1 40 41 419 65 801 894
278 9 2 1 1 298 224 486 895 883 888
279 9 2 1 1 272 315 456 896 897 610
280 9 2 1 1 263 357 370 898 899 900
281 9 2 1 1 232 310 466 787 901 889
282 9 2 1 1 402 271 475 612 902 729
283 9 2 1 1 206 297 408 903 904 869
284 9 2 1 1 254 416 471 905 906 851
285 9 2 1 1 272 403 481 623 733 907
286 9 2 1 1 209 410 483 908 909 826
287 9 2 1 1 264 300 415 555 910 911
288 9 2 1 1 225 367 414 912 913 605
289 9 2 1 1 405 295 410 805 914 915
290 9 2 1 1 253 405 410 916 915 917
291 9 2 1 1 167 168 329 188 918 919
292 9 2 1 1 37 38 353 62 828 920
293 9 2 1 1 41 42 389 66 667 799
294 9 2 1 1 302 156 441 921 922 923
295 9 2 1 1 309 297 476 924 925 926
296 9 2 1 1 238 353 390 927 830 573
297 9 2 1 1 229 296 368 864 928 929
298 9 2 1 1 113 114 379 144 839 930
299 9 2 1 1 305 3 416 931 932 933
300 9 2 1 1 163 311 394 934 935 936
301 9 2 1 1 163 164 311 184 937 934
302 9 2 1 1 120 303 396 645 849 938
303 9 2 1 1 205 321 356 939 940 803
304 9 2 1 1 253 328 478 941 942 943
305 9 2 1 1 230 321 327 944 845 945
306 9 2 1 1 232 306 371 946 878 788
307 9 2 1 1 45 46 331 70 947 948
308 9 2 1 1 158 159 368 179 949 950
309 9 2 1 1 48 49 333 73 951 952
310 9 2 1 1 356 230 372 953 954 955
311 9 2 1 1 269 379 409 956 841 957
312 9 2 1 1 51 52 334 76 958 959
313 9 2 1 1 439 253 478 960 943 961
314 9 2 1 1 297 224 476 881 962 925
315 9 2 1 1 359 160 446 834 963 964
316 9 2 1 1 380 266 458 675 965 966
317 9 2 1 1 407 218 500 967 968 969
318 9 2 1 1 375 206 386 749 970 971
319 9 2 1 1 54 55 336 79 972 635
320 9 2 1 1 227 301 395 570 973 974
321 9 2 1 1 11 12 335 26 975 976
322 9 2 1 1 270 347 438 977 978 979
323 9 2 1 1 348 207 492 544 886 980
324 9 2 1 1 321 205 391 939 981 982
325 9 2 1 1 252 378 397 983 984 985
326 9 2 1 1 226 321 391 843 982 726
327 9 2 1 1 321 230 356 944 953 940
328 9 2 1 1 322 96 518 874 986 987
329 9 2 1 1 224 298 377 895 988 989
330 9 2 1 1 226 294 437 630 990 991
331 9 2 1 1 264 306 382 992 993 556
332 9 2 1 1 231 290 407 540 994 872
333 9 2 1 1 18 19 433 33 995 780
334 9 2 1 1 231 293 394 871 996 997
335 9 2 1 1 167 329 347 919 998 999
336 9 2 1 1 387 283 457 624 819 1000
337 9 2 1 1 56 312 436 1001 1002 1003
338 9 2 1 1 3 305 466 931 890 1004
339 9 2 1 1 156 302 471 921 852 1005
340 9 2 1 1 172 324 513 880 1006 1007
341 9 2 1 1 228 378 386 621 1008 1009
342 9 2 1 1 159 359 368 835 1010 949
343 9 2 1 1 333 49 376 951 1011 1012
344 9 2 1 1 334 52 387 958 1013 1014
345 9 2 1 1 414 266 490 1015 1016 614
346 9 2 1 1 383 274 467 1017 833 1018
347 9 2 1 1 330 259 488 1019 1020 1021
348 9 2 1 1 294 424 505 740 1022 1023
349 9 2 1 1 231 311 401 1024 1025 541
350 9 2 1 1 347 236 438 1026 1027 978
351 9 2 1 1 315 10 440 1028 1029 1030
352 9 2 1 1 238 298 375 1031 887 1032
353 9 2 1 1 411 289 506 734 1033 1034
354 9 2 1 1 278 392 503 601 1035 1036
355 9 2 1 1 316 234 381 1037 1038 1039
356 9 2 1 1 240 333 376 1040 1012 1041
357 9 2 1 1 258 404 453 1042 893 1043
358 9 2 1 1 217 316 381 567 1039 689
359 9 2 1 1 252 397 489 985 1044 1045
360 9 2 1 1 276 322 518 1046 987 1047
361 9 2 1 1 329 236 347 1048 1026 998
362 9 2 1 1 166 167 347 187 999 1049
363 9 2 1 1 249 334 387 1050 1014 1051
364 9 2 1 1 268 205 488 1052 1053 1054
365 9 2 1 1 264 455 459 1055 1056 1057
366 9 2 1 1 317 215 385 564 693 1058
367 9 2 1 1 376 277 461 1059 777 1060
368 9 2 1 1 234 313 463 1061 1062 1063
369 9 2 1 1 205 268 391 1052 853 981
370 9 2 1 1 3 155 416 175 1064 932
371 9 2 1 1 17 18 405 32 806 1065
372 9 2 1 1 223 430 448 1066 1067 1068
373 9 2 1 1 309 210 479 580 1069 1070
374 9 2 1 1 211 308 490 538 615 1071
375 9 2 1 1 322 234 477 1072 1073 1074
376 9 2 1 1 235 317 385 1075 1058 1076
377 9 2 1 1 311 231 394 1024 997 935
378 9 2 1 1 324 273 513 1077 1078 1006
379 9 2 1 1 234 323 477 1079 1080 1073
380 9 2 1 1 329 168 516 918 1081 1082
381 9 2 1 1 234 322 381 1072 1083 1038
382 9 2 1 1 314 235 462 1084 1085 1086
383 9 2 1 1 263 301 485 1087 673 1088
384 9 2 1 1 98 99 338 129 627 1089
385 9 2 1 1 104 105 340 135 640 1090
386 9 2 1 1 97 98 341 128 1091 1092
387 9 2 1 1 101 102 342 132 638 1093
388 9 2 1 1 306 264 459 992 1057 1094
389 9 2 1 1 254 302 464 850 1095 1096
390 9 2 1 1 107 108 344 138 649 1097
391 9 2 1 1 100 101 345 131 1098 628
392 9 2 1 1 110 111 346 141 1099 1100
393 9 2 1 1 287 369 429 662 1101 718
394 9 2 1 1 169 170 339 190 1102 1103
395 9 2 1 1 239 331 383 1104 1105 1106
396 9 2 1 1 331 46 383 947 1107 1105
397 9 2 1 1 88 323 463 1108 1109 1110
398 9 2 1 1 170 171 343 191 1111 1112
399 9 2 1 1 398 281 515 617 1113 1114
400 9 2 1 1 45 331 503 948 1115 1116
401 9 2 1 1 212 306 459 876 1094 1117
402 9 2 1 1 235 324 482 1118 1119 1120
403 9 2 1 1 241 350 365 1121 1122 1123
404 9 2 1 1 350 251 365 1124 1125 1122
405 9 2 1 1 349 249 362 1126 1127 1128
406 9 2 1 1 242 349 362 1129 1128 1130
407 9 2 1 1 246 351 361 1131 1132 1133
408 9 2 1 1 351 240 361 1134 1135 1132
409 9 2 1 1 352 239 360 1136 1137 1138
410 9 2 1 1 245 352 360 1139 1138 1140
411 9 2 1 1 306 232 480 946 1141 1142
412 9 2 1 1 325 196 462 1143 1144 1145
413 9 2 1 1 325 235 482 1146 1120 1147
414 9 2 1 1 389 262 419 1148 743 800
415 9 2 1 1 311 258 401 1149 1150 1025
416 9 2 1 1 98 338 341 1089 1151 1091
417 9 2 1 1 101 342 345 1093 1152 1098
418 9 2 1 1 304 237 357 681 1153 814
419 9 2 1 1 156 157 441 177 1154 922
420 9 2 1 1 162 163 394 183 936 1155
421 9 2 1 1 322 276 381 1046 690 1083
422 9 2 1 1 438 214 453 1156 1157 1158
423 9 2 1 1 327 226 509 844 1159 1160
424 9 2 1 1 290 209 509 602 1161 1162
425 9 2 1 1 324 235 385 1118 1076 1163
426 9 2 1 1 331 278 503 1164 1036 1115
427 9 2 1 1 270 404 495 891 1165 1166
428 9 2 1 1 339 170 343 1102 1112 1167
429 9 2 1 1 338 241 341 1168 1169 1151
430 9 2 1 1 354 243 364 1170 1171 1172
431 9 2 1 1 248 354 364 1173 1172 1174
432 9 2 1 1 342 242 345 1175 1176 1152
433 9 2 1 1 274 383 511 1017 1177 1178
434 9 2 1 1 320 214 438 579 1156 1179
435 9 2 1 1 323 234 463 1079 1063 1109
436 9 2 1 1 55 56 436 80 1003 1180
437 9 2 1 1 107 344 363 1097 1181 1182
438 9 2 1 1 104 340 366 1090 1183 1184
439 9 2 1 1 277 376 517 1059 1185 1186
440 9 2 1 1 275 329 516 1187 1082 1188
441 9 2 1 1 282 366 443 654 1189 817
442 9 2 1 1 250 358 374 1190 1191 1192
443 9 2 1 1 110 346 369 1100 1193 1194
444 9 2 1 1 273 324 385 1077 1163 692
445 9 2 1 1 251 312 460 1195 868 1196
446 9 2 1 1 430 289 448 1197 736 1067
447 9 2 1 1 106 107 363 137 1182 655
448 9 2 1 1 284 363 442 656 1198 720
449 9 2 1 1 367 267 414 1199 1200 913
450 9 2 1 1 315 248 456 1201 1202 897
451 9 2 1 1 103 104 366 134 1184 653
452 9 2 1 1 254 305 416 762 933 905
453 9 2 1 1 243 339 343 1203 1167 1204
454 9 2 1 1 109 110 369 140 1194 661
455 9 2 1 1 344 245 363 1205 1206 1181
456 9 2 1 1 340 246 366 1207 1208 1183
457 9 2 1 1 312 56 475 1001 1209 1210
458 9 2 1 1 10 11 440 25 1211 1029
459 9 2 1 1 235 325 462 1146 1145 1085
460 9 2 1 1 346 250 369 1212 1213 1193
461 9 2 1 1 196 197 462 201 1214 1144
462 9 2 1 1 87 88 463 92 1110 1215
463 9 2 1 1 293 407 500 873 969 838
464 9 2 1 1 10 315 481 1028 1216 1217
465 9 2 1 1 221 351 428 1218 1219 699
466 9 2 1 1 342 282 420 637 816 1220
467 9 2 1 1 357 237 370 1153 1221 899
468 9 2 1 1 338 280 422 626 714 1222
469 9 2 1 1 319 288 476 608 1223 1224
470 9 2 1 1 226 437 509 991 1225 1159
471 9 2 1 1 331 239 400 1104 1226 1227
472 9 2 1 1 323 94 477 1228 1229 1080
473 9 2 1 1 367 225 502 912 1230 1231
474 9 2 1 1 296 367 502 866 1231 1232
475 9 2 1 1 308 254 464 535 1096 1233
476 9 2 1 1 49 50 376 74 1234 1011
477 9 2 1 1 222 352 427 1235 1236 716
478 9 2 1 1 333 274 511 1237 1178 1238
479 9 2 1 1 48 333 511 952 1238 1239
480 9 2 1 1 333 240 399 1040 1240 1241
481 9 2 1 1 253 326 493 1242 1243 1244
482 9 2 1 1 249 387 457 1051 1000 1245
483 9 2 1 1 312 251 436 1195 1246 1002
484 9 2 1 1 275 339 426 1247 1248 722
485 9 2 1 1 123 3 466 154 1004 1249
486 9 2 1 1 225 308 464 604 1233 1250
487 9 2 1 1 348 233 393 1251 724 1252
488 9 2 1 1 293 162 394 596 1155 996
489 9 2 1 1 174 325 482 1253 1147 1254
490 9 2 1 1 121 122 472 152 1255 1256
491 9 2 1 1 248 315 440 1201 1030 1257
492 9 2 1 1 341 276 518 1258 1047 1259
493 9 2 1 1 14 15 421 29 1260 1261
494 9 2 1 1 239 383 467 1106 1018 1262
495 9 2 1 1 85 86 449 90 1263 1264
496 9 2 1 1 216 412 465 1265 1266 1267
497 9 2 1 1 198 199 450 203 1268 1269
498 9 2 1 1 46 47 383 71 1270 1107
499 9 2 1 1 216 355 425 1271 1272 702
500 9 2 1 1 334 249 413 1050 1273 1274
501 9 2 1 1 392 244 451 600 758 1275
502 9 2 1 1 297 206 486 903 751 882
503 9 2 1 1 307 263 485 1276 1088 1277
504 9 2 1 1 334 277 517 1278 1186 1279
505 9 2 1 1 51 334 517 959 1279 1280
506 9 2 1 1 267 424 458 1281 1282 1283
507 9 2 1 1 280 345 431 629 1284 711
508 9 2 1 1 276 341 432 1258 1285 696
509 9 2 1 1 343 273 435 1286 707 1287
510 9 2 1 1 418 213 445 809 644 651
511 9 2 1 1 421 15 473 1260 1288 1289
512 9 2 1 1 118 299 444 764 1290 1291
513 9 2 1 1 273 343 513 1286 1292 1078
514 9 2 1 1 52 53 387 77 625 1013
515 9 2 1 1 339 275 516 1247 1188 1293
516 9 2 1 1 209 328 410 1294 1295 908
517 9 2 1 1 358 244 374 1296 1297 1191
518 9 2 1 1 313 87 463 857 1215 1062
519 9 2 1 1 197 314 462 861 1086 1214
520 9 2 1 1 313 234 497 1061 1298 1299
521 9 2 1 1 252 375 386 1300 971 1301
522 9 2 1 1 42 43 451 67 1302 768
523 9 2 1 1 335 12 515 975 1303 1304
524 9 2 1 1 281 335 515 1305 1304 1113
525 9 2 1 1 233 348 492 1251 980 1306
526 9 2 1 1 235 314 510 1084 1307 1308
527 9 2 1 1 369 250 429 1213 1309 1101
528 9 2 1 1 257 313 497 1310 1299 1311
529 9 2 1 1 267 367 469 1199 1312 1313
530 9 2 1 1 367 229 469 865 1314 1312
531 9 2 1 1 255 384 508 1315 1316 1317
532 9 2 1 1 313 257 449 1310 1318 1319
533 9 2 1 1 236 329 425 1048 1320 1321
534 9 2 1 1 350 219 417 1322 765 1323
535 9 2 1 1 208 380 458 1324 966 1325
536 9 2 1 1 263 370 468 900 1326 1327
537 9 2 1 1 359 229 368 1328 929 1010
538 9 2 1 1 240 376 461 1041 1060 1329
539 9 2 1 1 274 333 399 1237 1241 832
540 9 2 1 1 258 328 401 1330 1331 1150
541 9 2 1 1 278 331 400 1164 1227 1332
542 9 2 1 1 270 438 453 979 1158 892
543 9 2 1 1 38 39 390 63 1333 829
544 9 2 1 1 86 313 449 858 1319 1263
545 9 2 1 1 239 352 400 1136 1334 1226
546 9 2 1 1 316 257 497 569 1311 1335
547 9 2 1 1 388 257 507 1336 1337 1338
548 9 2 1 1 271 312 475 867 1210 902
549 9 2 1 1 347 270 495 977 1166 1339
550 9 2 1 1 314 198 450 860 1269 1340
551 9 2 1 1 122 310 472 863 1341 1255
552 9 2 1 1 240 351 399 1134 1342 1240
553 9 2 1 1 248 335 412 1343 1344 1345
554 9 2 1 1 94 95 477 125 1346 1229
555 9 2 1 1 249 349 413 1126 1347 1273
556 9 2 1 1 310 123 466 862 1249 901
557 9 2 1 1 234 316 497 1037 1335 1298
558 9 2 1 1 344 287 427 648 717 1348
559 9 2 1 1 256 398 421 618 1349 676
560 9 2 1 1 403 255 508 622 1317 1350
561 9 2 1 1 455 307 459 1351 1352 1056
562 9 2 1 1 43 44 392 68 1353 1354
563 9 2 1 1 340 284 428 639 700 1355
564 9 2 1 1 173 174 482 194 1254 1356
565 9 2 1 1 216 354 412 1357 1358 1265
566 9 2 1 1 114 115 409 145 1359 840
567 9 2 1 1 317 235 510 1075 1308 1360
568 9 2 1 1 205 330 488 802 1021 1053
569 9 2 1 1 349 220 413 1361 746 1347
570 9 2 1 1 289 346 506 1362 1363 1033
571 9 2 1 1 315 272 481 896 907 1216
572 9 2 1 1 285 359 446 1364 964 1365
573 9 2 1 1 310 265 472 812 1366 1341
574 9 2 1 1 97 341 518 1092 1259 1367
575 9 2 1 1 365 217 432 1368 697 1369
576 9 2 1 1 346 111 506 1099 1370 1363
577 9 2 1 1 242 342 420 1175 1220 1371
578 9 2 1 1 241 338 422 1168 1222 1372
579 9 2 1 1 362 219 431 1373 712 1374
580 9 2 1 1 336 251 417 1375 1376 1377
581 9 2 1 1 257 402 507 613 1378 1337
582 9 2 1 1 220 361 461 1379 1380 747
583 9 2 1 1 199 384 450 660 1381 1268
584 9 2 1 1 221 360 467 1382 1383 791
585 9 2 1 1 219 350 422 1322 1384 713
586 9 2 1 1 388 85 449 668 1264 1385
587 9 2 1 1 291 390 504 574 1386 1387
588 9 2 1 1 220 349 420 1361 1388 784
589 9 2 1 1 366 246 443 1208 1389 1189
590 9 2 1 1 13 14 398 28 1390 1391
591 9 2 1 1 169 339 516 1103 1293 1392
592 9 2 1 1 255 317 510 562 1360 1393
593 9 2 1 1 373 211 490 684 1071 1394
594 9 2 1 1 343 171 513 1111 1395 1292
595 9 2 1 1 363 245 442 1206 1396 1198
596 9 2 1 1 259 330 498 1019 1397 1398
597 9 2 1 1 328 209 401 1294 603 1331
598 9 2 1 1 236 320 438 797 1179 1027
599 9 2 1 1 339 243 426 1203 1399 1248
600 9 2 1 1 346 289 430 1362 1197 1400
601 9 2 1 1 215 364 435 1401 1402 706
602 9 2 1 1 252 353 375 1403 1404 1300
603 9 2 1 1 412 281 465 1405 634 1266
604 9 2 1 1 450 255 510 1406 1393 1407
605 9 2 1 1 212 318 499 549 1408 1409
606 9 2 1 1 424 286 505 1410 1411 1022
607 9 2 1 1 354 216 426 1357 723 1412
608 9 2 1 1 117 118 444 148 1291 744
609 9 2 1 1 311 164 404 937 1413 1414
610 9 2 1 1 314 450 510 1340 1407 1307
611 9 2 1 1 351 221 399 1218 790 1342
612 9 2 1 1 166 347 495 1049 1339 1415
613 9 2 1 1 328 258 478 1330 1416 942
614 9 2 1 1 164 165 404 185 1417 1413
615 9 2 1 1 328 253 410 941 917 1295
616 9 2 1 1 352 222 400 1235 1418 1334
617 9 2 1 1 119 120 396 150 938 859
618 9 2 1 1 268 393 474 1419 725 1420
619 9 2 1 1 16 326 473 1421 1422 1423
620 9 2 1 1 376 50 517 1234 1424 1185
621 9 2 1 1 354 248 412 1173 1345 1358
622 9 2 1 1 9 10 481 24 1217 732
623 9 2 1 1 56 57 475 81 730 1209
624 9 2 1 1 326 253 439 1242 960 772
625 9 2 1 1 250 346 430 1212 1400 1425
626 9 2 1 1 251 350 417 1124 1323 1376
627 9 2 1 1 318 265 499 679 1426 1408
628 9 2 1 1 336 55 436 972 1180 1427
629 9 2 1 1 277 334 413 1278 1274 776
630 9 2 1 1 329 275 425 1187 703 1320
631 9 2 1 1 243 343 435 1204 1287 1428
632 9 2 1 1 374 244 487 1297 672 1429
633 9 2 1 1 345 242 431 1176 1430 1284
634 9 2 1 1 341 241 432 1169 1431 1285
635 9 2 1 1 160 161 446 181 685 963
636 9 2 1 1 383 47 511 1270 1432 1177
637 9 2 1 1 464 302 502 1095 1433 1434
638 9 2 1 1 258 311 404 1149 1414 1042
639 9 2 1 1 335 248 440 1343 1257 1435
640 9 2 1 1 335 281 412 1305 1405 1344
641 9 2 1 1 218 285 500 846 1436 968
642 9 2 1 1 355 236 425 798 1321 1272
643 9 2 1 1 230 327 483 945 827 1437
644 9 2 1 1 447 121 472 778 1256 1438
645 9 2 1 1 299 227 496 773 1439 1440
646 9 2 1 1 360 221 442 1382 721 1441
647 9 2 1 1 298 238 434 1031 548 1442
648 9 2 1 1 361 220 443 1379 786 1443
649 9 2 1 1 223 358 430 1444 1445 1066
650 9 2 1 1 11 335 440 976 1435 1211
651 9 2 1 1 244 358 491 1296 1446 769
652 9 2 1 1 248 364 456 1174 1447 1202
653 9 2 1 1 213 377 434 808 1448 590
654 9 2 1 1 112 113 411 143 1449 1450
655 9 2 1 1 219 362 457 1373 1451 766
656 9 2 1 1 251 336 436 1375 1427 1246
657 9 2 1 1 259 348 393 824 1252 1452
658 9 2 1 1 94 323 514 1228 1453 1454
659 9 2 1 1 326 16 493 1421 1455 1243
660 9 2 1 1 223 337 423 1456 1457 1458
661 9 2 1 1 337 262 423 1459 1460 1457
662 9 2 1 1 365 251 460 1125 1196 1461
663 9 2 1 1 353 238 375 927 1032 1404
664 9 2 1 1 95 322 477 875 1074 1346
665 9 2 1 1 424 208 458 530 1325 1282
666 9 2 1 1 283 336 417 636 1377 818
667 9 2 1 1 390 39 504 1333 1462 1386
668 9 2 1 1 247 356 372 822 955 553
669 9 2 1 1 225 464 502 1250 1434 1230
670 9 2 1 1 2 36 397 60 1463 587
671 9 2 1 1 323 88 514 1108 1464 1453
672 9 2 1 1 324 173 482 879 1356 1119
673 9 2 1 1 386 206 454 970 870 1465
674 9 2 1 1 392 44 503 1353 1466 1035
675 9 2 1 1 279 421 473 677 1289 1467
676 9 2 1 1 397 36 489 1463 1468 1044
677 9 2 1 1 372 230 501 954 1469 1470
678 9 2 1 1 158 368 494 950 1471 1472
679 9 2 1 1 405 253 493 916 1244 1473
680 9 2 1 1 245 344 427 1205 1348 1474
681 9 2 1 1 325 174 512 1253 1475 1476
682 9 2 1 1 326 279 473 771 1467 1422
683 9 2 1 1 371 212 499 877 1409 1477
684 9 2 1 1 212 459 485 1117 1478 550
685 9 2 1 1 13 398 515 1391 1114 1479
686 9 2 1 1 246 340 428 1207 1355 1480
687 9 2 1 1 250 374 429 1192 1481 1309
688 9 2 1 1 374 222 429 1482 719 1481
689 9 2 1 1 297 309 479 924 1070 1483
690 9 2 1 1 300 233 492 584 1306 1484
691 9 2 1 1 228 386 454 1009 1465 794
692 9 2 1 1 256 355 465 796 1485 633
693 9 2 1 1 368 296 494 928 1486 1471
694 9 2 1 1 379 269 418 956 821 1487
695 9 2 1 1 261 379 418 1488 1487 664
696 9 2 1 1 196 325 512 1143 1476 1489
697 9 2 1 1 218 407 437 967 1490 1491
698 9 2 1 1 15 16 473 30 1423 1288
699 9 2 1 1 349 242 420 1129 1371 1388
700 9 2 1 1 350 241 422 1121 1372 1384
701 9 2 1 1 262 389 423 1148 1492 1460
702 9 2 1 1 389 292 423 666 1493 1492
703 9 2 1 1 370 210 468 1494 1495 1326
704 9 2 1 1 113 379 411 930 1496 1449
705 9 2 1 1 351 246 428 1131 1480 1219
706 9 2 1 1 352 245 427 1139 1474 1236
707 9 2 1 1 353 252 489 1403 1045 1497
708 9 2 1 1 37 353 489 920 1497 1498
709 9 2 1 1 301 263 468 1087 1327 1499
710 9 2 1 1 243 354 426 1170 1412 1399
711 9 2 1 1 232 332 480 761 837 1141
712 9 2 1 1 262 337 445 1459 652 642
713 9 2 1 1 209 327 509 825 1160 1161
714 9 2 1 1 207 357 452 815 1500 1501
715 9 2 1 1 437 290 509 1502 1162 1225
716 9 2 1 1 378 247 397 705 588 984
717 9 2 1 1 400 222 487 1418 1503 1504
718 9 2 1 1 378 252 386 983 1301 1008
719 9 2 1 1 115 319 409 741 1505 1359
720 9 2 1 1 337 223 448 1456 1068 1506
721 9 2 1 1 357 263 452 898 1507 1500
722 9 2 1 1 16 17 493 31 1508 1455
723 9 2 1 1 358 250 430 1190 1425 1445
724 9 2 1 1 304 259 498 823 1398 738
725 9 2 1 1 379 261 411 1488 754 1496
726 9 2 1 1 224 319 476 1509 1224 962
727 9 2 1 1 261 337 448 663 1506 755
728 9 2 1 1 112 411 506 1450 1034 1510
729 9 2 1 1 242 362 431 1130 1374 1430
730 9 2 1 1 241 365 432 1123 1369 1431
731 9 2 1 1 364 243 435 1171 1428 1402
732 9 2 1 1 404 165 495 1417 1511 1165
733 9 2 1 1 299 260 444 1512 752 1290
734 9 2 1 1 278 400 487 1332 1504 671
735 9 2 1 1 245 360 442 1140 1441 1396
736 9 2 1 1 246 361 443 1133 1443 1389
737 9 2 1 1 286 218 505 847 1513 1411
738 9 2 1 1 288 309 476 695 926 1223
739 9 2 1 1 377 298 434 988 1442 1448
740 9 2 1 1 88 6 514 93 1514 1464
741 9 2 1 1 4 196 512 200 1489 1515
742 9 2 1 1 229 359 470 1328 1516 1517
743 9 2 1 1 410 295 483 914 1518 909
744 9 2 1 1 19 20 501 34 1519 1520
745 9 2 1 1 36 37 489 61 1498 1468
746 9 2 1 1 155 156 471 176 1005 1521
747 9 2 1 1 6 94 514 124 1454 1514
748 9 2 1 1 370 237 408 1221 708 1522
749 9 2 1 1 44 45 503 69 1116 1466
750 9 2 1 1 39 40 504 64 1523 1462
751 9 2 1 1 58 59 507 83 1524 1525
752 9 2 1 1 7 8 508 22 1526 1527
753 9 2 1 1 47 48 511 72 1239 1432
754 9 2 1 1 12 13 515 27 1479 1303
755 9 2 1 1 50 51 517 75 1280 1424
756 9 2 1 1 384 255 450 1315 1406 1381
757 9 2 1 1 398 14 421 1390 1261 1349
758 9 2 1 1 362 249 457 1127 1245 1451
759 9 2 1 1 364 215 456 1401 611 1447
760 9 2 1 1 257 388 449 1336 1385 1318
761 9 2 1 1 355 216 465 1271 1267 1485
762 9 2 1 1 217 365 460 1368 1461 594
763 9 2 1 1 330 228 498 619 739 1397
764 9 2 1 1 111 112 506 142 1510 1370
765 9 2 1 1 96 97 518 127 1367 986
766 9 2 1 1 361 240 461 1135 1329 1380
767 9 2 1 1 157 158 494 178 1472 1528
768 9 2 1 1 424 267 469 1281 1313 1529
769 9 2 1 1 165 166 495 186 1415 1511
770 9 2 1 1 174 4 512 195 1515 1475
771 9 2 1 1 171 172 513 192 1007 1395
772 9 2 1 1 168 169 516 189 1392 1081
773 9 2 1 1 263 307 452 1276 1530 1507
774 9 2 1 1 258 453 478 1043 1531 1416
775 9 2 1 1 382 306 480 993 1142 842
776 9 2 1 1 360 239 467 1137 1262 1383
777 9 2 1 1 266 373 490 674 1394 1016
778 9 2 1 1 459 307 485 1352 1277 1478
779 9 2 1 1 395 301 468 973 1499 1532
780 9 2 1 1 230 433 501 1533 1534 1469
781 9 2 1 1 223 423 491 1458 1535 1536
782 9 2 1 1 423 292 491 1493 770 1535
783 9 2 1 1 358 223 491 1444 1536 1446
784 9 2 1 1 393 268 488 1419 1054 1537
785 9 2 1 1 43 392 451 1354 1275 1302
786 9 2 1 1 265 371 499 813 1477 1426
787 9 2 1 1 259 393 488 1452 1537 1020
788 9 2 1 1 260 299 496 1512 1440 782
789 9 2 1 1 222 374 487 1482 1429 1503
790 9 2 1 1 224 377 484 989 1538 1539
791 9 2 1 1 433 230 483 1533 1437 1540
792 9 2 1 1 208 406 474 529 1541 1542
793 9 2 1 1 210 370 479 1494 1543 1069
794 9 2 1 1 319 224 484 1509 1539 1544
795 9 2 1 1 295 433 483 781 1540 1518
796 9 2 1 1 437 294 505 990 1023 1545
797 9 2 1 1 264 415 455 911 1546 1055
798 9 2 1 1 218 437 505 1491 1545 1513
799 9 2 1 1 384 7 508 658 1527 1316
800 9 2 1 1 227 395 496 974 783 1439
801 9 2 1 1 59 388 507 670 1338 1524
802 9 2 1 1 407 290 437 994 1502 1490
803 9 2 1 1 266 414 458 1015 1547 965
804 9 2 1 1 416 155 471 1064 1521 906
805 9 2 1 1 380 208 474 1324 1542 592
806 9 2 1 1 409 319 484 1505 1544 1548
807 9 2 1 1 302 441 502 923 1549 1433
808 9 2 1 1 20 372 501 793 1470 1519
809 9 2 1 1 370 408 479 1522 1550 1543
810 9 2 1 1 452 307 455 1530 1351 1551
811 9 2 1 1 17 405 493 1065 1473 1508
812 9 2 1 1 441 157 494 1154 1528 1552
813 9 2 1 1 402 58 507 811 1525 1378
814 9 2 1 1 469 229 470 1314 1517 1553
815 9 2 1 1 8 403 508 807 1350 1526
816 9 2 1 1 214 439 478 583 961 1554
817 9 2 1 1 286 424 469 1410 1529 1555
818 9 2 1 1 414 267 458 1200 1283 1547
819 9 2 1 1 265 447 472 831 1438 1366
820 9 2 1 1 296 441 494 1556 1552 1486
821 9 2 1 1 359 285 470 1364 856 1516
822 9 2 1 1 415 300 492 910 1484 885
823 9 2 1 1 406 268 474 854 1420 1541
824 9 2 1 1 377 269 484 820 1557 1538
825 9 2 1 1 40 419 504 894 1558 1523
826 9 2 1 1 419 291 504 742 1387 1558
827 9 2 1 1 453 214 478 1157 1554 1531
828 9 2 1 1 210 395 468 559 1532 1495
829 9 2 1 1 433 19 501 995 1520 1534
830 9 2 1 1 408 297 479 904 1483 1550
831 9 2 1 1 441 296 502 1556 1232 1549
832 9 2 1 1 207 452 455 1501 1551 1559
833 9 2 1 1 269 409 484 957 1548 1557
834 9 2 1 1 285 446 500 1365 687 1436
835 9 2 1 1 415 207 455 884 1559 1546
836 9 2 1 1 286 469 470 1555 1553 855
$EndElements
